<svg width="26" height="47" viewBox="0 0 26 47" fill="none" xmlns="http://www.w3.org/2000/svg">
<path d="M22.4063 0.694171L22.4063 0.694158C22.8938 0.455472 23.4525 0.451749 23.9404 0.602255C24.429 0.752987 24.8903 1.07141 25.1751 1.53701C25.49 2.0517 25.5909 2.81015 25.4116 3.38291C25.3856 3.46593 25.3438 3.53505 25.3169 3.57671C25.2854 3.62549 25.2474 3.67715 25.2055 3.73052C25.1216 3.83753 25.0035 3.97513 24.8469 4.14908C24.5327 4.49824 24.0412 5.01853 23.3053 5.77986C21.8322 7.30398 19.3627 9.81172 15.3332 13.8864L5.83092 23.4953L15.3342 33.1045C20.2101 38.0349 22.6775 40.5305 23.9359 41.8475C24.5611 42.5017 24.9041 42.8817 25.0966 43.1307C25.1945 43.2575 25.2675 43.3681 25.3194 43.4778C25.3755 43.5964 25.3962 43.6926 25.4099 43.7597M22.4063 0.694171L24.9201 43.8598M22.4063 0.694171C22.3467 0.72334 22.297 0.762492 22.2804 0.775616L22.2788 0.776821C22.252 0.797911 22.2227 0.822691 22.1927 0.848754C22.1322 0.901394 22.0546 0.972045 21.963 1.05742C21.7791 1.22889 21.5267 1.47084 21.2171 1.77177C20.5973 2.37422 19.7406 3.22057 18.7276 4.22913C16.7013 6.24664 14.0453 8.91759 11.3998 11.5943C8.75432 14.2711 6.11834 16.9546 4.13194 18.9973C3.13894 20.0184 2.30716 20.8805 1.71739 21.5019C1.42282 21.8123 1.18667 22.0646 1.02041 22.2475C0.937681 22.3385 0.869302 22.4156 0.818742 22.4754C0.7938 22.5049 0.769617 22.5345 0.749025 22.5617L0.747526 22.5637C0.736544 22.578 0.691152 22.6374 0.661458 22.7101M22.4063 0.694171L0.661458 22.7101M25.4099 43.7597L24.9201 43.8598M25.4099 43.7597C25.4099 43.7597 25.4099 43.7597 25.4099 43.7597L24.9201 43.8598M25.4099 43.7597C25.6238 44.8062 25.2105 45.7572 24.2672 46.232M24.9201 43.8598C25.0928 44.705 24.7665 45.4209 24.0424 45.7854M24.2672 46.232L24.0424 45.7854M24.2672 46.232C23.9452 46.3941 23.6274 46.4981 23.2857 46.5C22.9426 46.5019 22.6267 46.4007 22.3088 46.24L22.3088 46.2399C22.2268 46.1985 22.1416 46.1262 22.0969 46.0883L22.0952 46.0868C22.0308 46.0322 21.9501 45.9601 21.8559 45.8738C21.6668 45.7004 21.411 45.4582 21.0998 45.1585C20.4765 44.5584 19.622 43.7195 18.6153 42.7218C16.6015 40.7259 13.9734 38.0893 11.3575 35.4452C8.74168 32.8011 6.13687 30.1483 4.16954 28.12C3.18611 27.1061 2.36066 26.2469 1.77241 25.6224C1.47863 25.3106 1.24182 25.0549 1.07339 24.8669C0.989548 24.7733 0.919583 24.693 0.866995 24.6293C0.840928 24.5977 0.815864 24.5662 0.79434 24.5369L0.793976 24.5364C0.779833 24.5172 0.741644 24.4652 0.713703 24.4024C0.452717 23.8155 0.425367 23.288 0.661458 22.7101M24.2672 46.232C24.2672 46.232 24.2672 46.232 24.2672 46.232L24.0424 45.7854M24.0424 45.7854L0.661458 22.7101" fill="white" stroke="white"/>
</svg>
