<svg width="24" height="24" viewBox="0 0 24 24" fill="none" xmlns="http://www.w3.org/2000/svg">
<path d="M0 12C0 5.37258 5.37258 0 12 0C18.6274 0 24 5.37258 24 12C24 18.6274 18.6274 24 12 24C5.37258 24 0 18.6274 0 12Z" fill="#80899E"/>
<path d="M13.1321 12.2269C13.1321 15.0035 10.9005 17.2544 8.1479 17.2544C5.39529 17.2544 3.16357 15.003 3.16357 12.2269C3.16357 9.45078 5.39512 7.19922 8.1479 7.19922C10.9007 7.19922 13.1321 9.45027 13.1321 12.2269Z" fill="white"/>
<path d="M18.5998 12.2273C18.5998 14.8409 17.484 16.9605 16.1076 16.9605C14.7313 16.9605 13.6155 14.8409 13.6155 12.2273C13.6155 9.61371 14.7311 7.49414 16.1075 7.49414C17.4839 7.49414 18.5996 9.61304 18.5996 12.2273" fill="white"/>
<path d="M20.8363 12.2265C20.8363 14.5676 20.444 16.4667 19.9598 16.4667C19.4757 16.4667 19.0835 14.5681 19.0835 12.2265C19.0835 9.88485 19.4759 7.98633 19.9598 7.98633C20.4438 7.98633 20.8363 9.88468 20.8363 12.2265Z" fill="white"/>
</svg>
