<svg width="123" height="137" viewBox="0 0 123 137" fill="none" xmlns="http://www.w3.org/2000/svg">
<rect x="1" y="6" width="91" height="129" fill="white"/>
<rect x="17" y="27" width="60" height="13" fill="#E7F5F5"/>
<path d="M104 29.4999C100.8 29.8999 100.333 36.3332 100.5 39.4999H121.5V35C121.5 32.6 119.5 30.3333 118.5 29.4999C115 29.3332 107.2 29.0999 104 29.4999Z" fill="white"/>
<path d="M113 128.5H108.5L111 133L113 128.5Z" fill="white"/>
<path d="M92.7881 137H1.12564C0.827097 137 0.540827 136.881 0.329727 136.67C0.118627 136.459 0 136.173 0 135.874V6.77117C0 6.47263 0.118627 6.18631 0.329727 5.97521C0.540827 5.76411 0.827097 5.64551 1.12564 5.64551H92.7881C92.9359 5.64551 93.0822 5.67463 93.2188 5.7312C93.3553 5.78777 93.4794 5.87068 93.584 5.97521C93.6885 6.07973 93.7715 6.20383 93.828 6.3404C93.8846 6.47697 93.9136 6.62335 93.9136 6.77117V135.874C93.9136 136.173 93.7951 136.459 93.584 136.67C93.3729 136.881 93.0866 137 92.7881 137ZM2.23399 134.749H91.6624V7.89681H2.25133L2.23399 134.749Z" fill="#0C999C"/>
<path d="M111.127 135.078C110.914 135.079 110.704 135.019 110.524 134.906C110.343 134.792 110.198 134.63 110.106 134.437L99.8537 113.327C99.7774 113.176 99.736 113.011 99.7324 112.842V39.9692C99.7324 39.6706 99.851 39.3843 100.062 39.1732C100.273 38.9621 100.559 38.8435 100.858 38.8435H121.362C121.661 38.8435 121.947 38.9621 122.158 39.1732C122.369 39.3843 122.488 39.6706 122.488 39.9692V112.842C122.484 113.011 122.443 113.176 122.367 113.327L112.114 134.437C112.025 134.624 111.886 134.784 111.711 134.897C111.537 135.01 111.335 135.072 111.127 135.078ZM102.001 112.565L111.127 131.354L120.254 112.565V41.0948H102.001V112.565Z" fill="#0C999C"/>
<path d="M111.127 135.078C110.914 135.079 110.704 135.019 110.523 134.906C110.342 134.792 110.198 134.63 110.106 134.437L107.179 128.428C107.107 128.27 107.073 128.098 107.079 127.925C107.085 127.752 107.131 127.582 107.213 127.43C107.295 127.277 107.411 127.146 107.553 127.045C107.694 126.945 107.856 126.879 108.027 126.852C110.117 126.405 112.276 126.405 114.366 126.852C114.531 126.889 114.686 126.964 114.819 127.07C114.952 127.176 115.059 127.311 115.132 127.464C115.206 127.617 115.243 127.785 115.242 127.955C115.242 128.125 115.202 128.292 115.128 128.445L112.218 134.454C112.128 134.644 111.985 134.805 111.808 134.918C111.63 135.032 111.424 135.093 111.214 135.095L111.127 135.078ZM109.88 128.809L111.127 131.372L112.374 128.809C111.544 128.739 110.709 128.745 109.88 128.826V128.809Z" fill="#0C999C"/>
<path d="M121.605 114.002C121.404 114.002 121.207 113.948 121.033 113.846L117.726 111.889L115.63 113.621C115.432 113.776 115.189 113.859 114.937 113.859C114.686 113.859 114.443 113.776 114.245 113.621L110.937 111.249L108.669 113.517C108.564 113.622 108.44 113.705 108.303 113.761C108.166 113.817 108.02 113.846 107.872 113.846C107.724 113.846 107.578 113.817 107.441 113.761C107.304 113.705 107.18 113.622 107.075 113.517L104.824 111.249L101.516 113.621C101.398 113.721 101.26 113.796 101.112 113.841C100.963 113.885 100.807 113.899 100.653 113.88C100.499 113.861 100.351 113.811 100.217 113.732C100.083 113.654 99.9675 113.548 99.8766 113.422C99.7857 113.297 99.7217 113.154 99.6887 113.002C99.6556 112.851 99.6543 112.694 99.6847 112.542C99.715 112.39 99.7765 112.246 99.8652 112.118C99.9539 111.991 100.068 111.884 100.2 111.803L104.287 108.859C104.505 108.703 104.77 108.629 105.037 108.652C105.303 108.674 105.553 108.79 105.742 108.98L107.872 111.127L110.019 108.98C110.208 108.79 110.458 108.674 110.724 108.652C110.991 108.629 111.257 108.703 111.474 108.859L114.834 111.283L116.877 109.551C117.056 109.395 117.279 109.299 117.515 109.277C117.752 109.256 117.989 109.309 118.193 109.43L122.194 111.803C122.406 111.928 122.572 112.12 122.665 112.349C122.758 112.577 122.773 112.83 122.708 113.069C122.643 113.307 122.502 113.517 122.305 113.667C122.109 113.817 121.869 113.898 121.622 113.898L121.605 114.002Z" fill="#0C999C"/>
<path d="M105.465 111.266C105.166 111.266 104.88 111.147 104.669 110.936C104.458 110.725 104.339 110.439 104.339 110.14V39.9692C104.339 39.6706 104.458 39.3843 104.669 39.1732C104.88 38.9621 105.166 38.8435 105.465 38.8435C105.763 38.8435 106.05 38.9621 106.261 39.1732C106.472 39.3843 106.59 39.6706 106.59 39.9692V110.227C106.569 110.51 106.44 110.775 106.232 110.967C106.023 111.16 105.749 111.267 105.465 111.266Z" fill="#0C999C"/>
<path d="M110.746 111.682C110.448 111.682 110.162 111.563 109.95 111.352C109.739 111.141 109.621 110.854 109.621 110.556L109.292 39.9692C109.292 39.6706 109.41 39.3843 109.622 39.1732C109.833 38.9621 110.119 38.8435 110.417 38.8435C110.716 38.8435 111.002 38.9621 111.213 39.1732C111.424 39.3843 111.543 39.6706 111.543 39.9692L111.872 110.556C111.872 110.854 111.753 111.141 111.542 111.352C111.331 111.563 111.045 111.682 110.746 111.682Z" fill="#0C999C"/>
<path d="M116.098 112.496C115.799 112.496 115.513 112.377 115.302 112.166C115.091 111.955 114.972 111.668 114.972 111.37V39.9692C114.972 39.6706 115.091 39.3843 115.302 39.1732C115.513 38.9621 115.799 38.8435 116.098 38.8435C116.396 38.8435 116.683 38.9621 116.894 39.1732C117.105 39.3843 117.223 39.6706 117.223 39.9692V111.387C117.219 111.683 117.098 111.965 116.888 112.172C116.677 112.379 116.393 112.496 116.098 112.496Z" fill="#0C999C"/>
<path d="M121.38 41.0948H100.876C100.577 41.0948 100.291 40.9762 100.08 40.7651C99.8687 40.554 99.75 40.2677 99.75 39.9692V34.6526C99.7546 32.9455 100.435 31.3095 101.642 30.1024C102.849 28.8952 104.485 28.215 106.192 28.2104H116.046C117.753 28.215 119.389 28.8952 120.596 30.1024C121.803 31.3095 122.484 32.9455 122.488 34.6526V39.9692C122.488 40.2647 122.372 40.5484 122.165 40.759C121.957 40.9697 121.675 41.0902 121.38 41.0948ZM102.001 38.8435H120.254V34.6526C120.254 33.5411 119.813 32.4752 119.027 31.6892C118.241 30.9033 117.175 30.4618 116.063 30.4618H106.21C105.098 30.4618 104.032 30.9033 103.246 31.6892C102.46 32.4752 102.019 33.5411 102.019 34.6526L102.001 38.8435Z" fill="#0C999C"/>
<path d="M77.3925 41.9953H16.5383C16.2397 41.9953 15.9534 41.8767 15.7423 41.6656C15.5312 41.4545 15.4126 41.1682 15.4126 40.8696V26.1842C15.4126 25.8857 15.5312 25.5994 15.7423 25.3883C15.9534 25.1772 16.2397 25.0586 16.5383 25.0586H77.3925C77.6911 25.0586 77.9773 25.1772 78.1884 25.3883C78.3995 25.5994 78.5182 25.8857 78.5182 26.1842V40.8696C78.5182 41.0174 78.4891 41.1638 78.4325 41.3004C78.3759 41.4369 78.293 41.561 78.1884 41.6656C78.0839 41.7701 77.9598 41.853 77.8232 41.9096C77.6867 41.9661 77.5403 41.9953 77.3925 41.9953ZM17.6639 39.744H76.2668V27.3099H17.6639V39.744Z" fill="#0C999C"/>
<path d="M76.2497 51.7278H17.664C17.3654 51.7278 17.0791 51.6093 16.868 51.3982C16.6569 51.1871 16.5383 50.9007 16.5383 50.6022C16.5383 50.3037 16.6569 50.0173 16.868 49.8062C17.0791 49.5951 17.3654 49.4766 17.664 49.4766H76.2669C76.5654 49.4766 76.8518 49.5951 77.0629 49.8062C77.274 50.0173 77.3926 50.3037 77.3926 50.6022C77.3926 50.9007 77.274 51.1871 77.0629 51.3982C76.8518 51.6093 76.5654 51.7278 76.2669 51.7278H76.2497Z" fill="#0C999C"/>
<path d="M76.2497 60.9405H17.664C17.3654 60.9405 17.0791 60.8219 16.868 60.6108C16.6569 60.3997 16.5383 60.1134 16.5383 59.8148C16.5383 59.5163 16.6569 59.23 16.868 59.0189C17.0791 58.8078 17.3654 58.6892 17.664 58.6892H76.2669C76.5654 58.6892 76.8518 58.8078 77.0629 59.0189C77.274 59.23 77.3926 59.5163 77.3926 59.8148C77.3926 60.1134 77.274 60.3997 77.0629 60.6108C76.8518 60.8219 76.5654 60.9405 76.2669 60.9405H76.2497Z" fill="#0C999C"/>
<path d="M76.2497 70.1366H35.9168C35.6183 70.1366 35.332 70.018 35.1209 69.8069C34.9098 69.5958 34.7913 69.3095 34.7913 69.0109C34.7913 68.7124 34.9098 68.4261 35.1209 68.215C35.332 68.0039 35.6183 67.8853 35.9168 67.8853H76.2497C76.5483 67.8853 76.8346 68.0039 77.0457 68.215C77.2568 68.4261 77.3753 68.7124 77.3753 69.0109C77.3753 69.3095 77.2568 69.5958 77.0457 69.8069C76.8346 70.018 76.5483 70.1366 76.2497 70.1366Z" fill="#0C999C"/>
<path d="M61.5815 79.3321H17.664C17.3654 79.3321 17.0791 79.2135 16.868 79.0024C16.6569 78.7913 16.5383 78.505 16.5383 78.2065C16.5383 77.9079 16.6569 77.6216 16.868 77.4105C17.0791 77.1994 17.3654 77.0808 17.664 77.0808H61.5989C61.8974 77.0808 62.1837 77.1994 62.3948 77.4105C62.6059 77.6216 62.7246 77.9079 62.7246 78.2065C62.7246 78.505 62.6059 78.7913 62.3948 79.0024C62.1837 79.2135 61.8974 79.3321 61.5989 79.3321H61.5815Z" fill="#0C999C"/>
<path d="M76.2497 88.5281H17.664C17.3654 88.5281 17.0791 88.4096 16.868 88.1985C16.6569 87.9874 16.5383 87.701 16.5383 87.4025C16.5383 87.104 16.6569 86.8176 16.868 86.6065C17.0791 86.3954 17.3654 86.2769 17.664 86.2769H76.2669C76.5654 86.2769 76.8518 86.3954 77.0629 86.6065C77.274 86.8176 77.3926 87.104 77.3926 87.4025C77.3926 87.701 77.274 87.9874 77.0629 88.1985C76.8518 88.4096 76.5654 88.5281 76.2669 88.5281H76.2497Z" fill="#0C999C"/>
<path d="M76.2496 97.7406H29.9594C29.6609 97.7406 29.3746 97.622 29.1635 97.4109C28.9524 97.1998 28.8337 96.9134 28.8337 96.6149C28.8337 96.3164 28.9524 96.0301 29.1635 95.819C29.3746 95.6079 29.6609 95.4893 29.9594 95.4893H76.2496C76.5481 95.4893 76.8344 95.6079 77.0455 95.819C77.2566 96.0301 77.3751 96.3164 77.3751 96.6149C77.3751 96.9134 77.2566 97.1998 77.0455 97.4109C76.8344 97.622 76.5481 97.7406 76.2496 97.7406Z" fill="#0C999C"/>
<path d="M76.2497 106.919H17.664C17.3654 106.919 17.0791 106.8 16.868 106.589C16.6569 106.378 16.5383 106.092 16.5383 105.793C16.5383 105.495 16.6569 105.209 16.868 104.997C17.0791 104.786 17.3654 104.668 17.664 104.668H76.2669C76.5654 104.668 76.8518 104.786 77.0629 104.997C77.274 105.209 77.3926 105.495 77.3926 105.793C77.3926 106.092 77.274 106.378 77.0629 106.589C76.8518 106.8 76.5654 106.919 76.2669 106.919H76.2497Z" fill="#0C999C"/>
<path d="M83.2632 13.5424C82.9646 13.5424 82.6783 13.4238 82.4672 13.2127C82.2561 13.0016 82.1375 12.7153 82.1375 12.4168V1.12564C82.1375 0.827097 82.2561 0.5408 82.4672 0.3297C82.6783 0.1186 82.9646 0 83.2632 0C83.5617 0 83.848 0.1186 84.0591 0.3297C84.2702 0.5408 84.3888 0.827097 84.3888 1.12564V12.4168C84.3888 12.7153 84.2702 13.0016 84.0591 13.2127C83.848 13.4238 83.5617 13.5424 83.2632 13.5424ZM71.1408 13.5424C70.8423 13.5424 70.5559 13.4238 70.3448 13.2127C70.1337 13.0016 70.0151 12.7153 70.0151 12.4168V1.12564C70.0151 0.827097 70.1337 0.5408 70.3448 0.3297C70.5559 0.118601 70.8423 0 71.1408 0C71.4394 0 71.7256 0.118601 71.9367 0.3297C72.1478 0.5408 72.2664 0.827097 72.2664 1.12564V12.4168C72.2664 12.7123 72.1502 12.996 71.9429 13.2066C71.7355 13.4173 71.4537 13.5379 71.1582 13.5424H71.1408ZM59.0185 13.5424C58.7199 13.5424 58.4335 13.4238 58.2224 13.2127C58.0113 13.0016 57.8928 12.7153 57.8928 12.4168V1.12564C57.8928 0.827097 58.0113 0.5408 58.2224 0.3297C58.4335 0.118601 58.7199 0 59.0185 0C59.317 0 59.6033 0.118601 59.8144 0.3297C60.0255 0.5408 60.144 0.827097 60.144 1.12564V12.4168C60.1442 12.7094 60.0304 12.9906 59.8267 13.2007C59.6231 13.4109 59.3455 13.5334 59.053 13.5424H59.0185ZM46.8961 13.5424C46.5976 13.5424 46.3112 13.4238 46.1001 13.2127C45.889 13.0016 45.7704 12.7153 45.7704 12.4168V1.12564C45.7704 0.827097 45.889 0.5408 46.1001 0.3297C46.3112 0.118601 46.5976 0 46.8961 0C47.1946 0 47.4809 0.118601 47.692 0.3297C47.9031 0.5408 48.0217 0.827097 48.0217 1.12564V12.4168C48.022 12.7065 47.9106 12.9852 47.7106 13.1949C47.5106 13.4046 47.2374 13.5291 46.948 13.5424H46.8961ZM34.7737 13.5424C34.4752 13.5424 34.1888 13.4238 33.9777 13.2127C33.7666 13.0016 33.648 12.7153 33.648 12.4168V1.12564C33.648 0.827097 33.7666 0.5408 33.9777 0.3297C34.1888 0.118601 34.4752 0 34.7737 0C35.0723 0 35.3585 0.118601 35.5696 0.3297C35.7807 0.5408 35.8993 0.827097 35.8993 1.12564V12.4168C35.8999 12.7037 35.7908 12.98 35.5945 13.1892C35.3981 13.3984 35.1293 13.5248 34.843 13.5424H34.7737ZM22.6514 13.5424C22.3528 13.5424 22.0665 13.4238 21.8554 13.2127C21.6443 13.0016 21.5257 12.7153 21.5257 12.4168V1.12564C21.5257 0.827097 21.6443 0.5408 21.8554 0.3297C22.0665 0.1186 22.3528 0 22.6514 0C22.9499 0 23.2362 0.1186 23.4473 0.3297C23.6584 0.5408 23.777 0.827097 23.777 1.12564V12.4168C23.7779 12.7009 23.6712 12.9748 23.4785 13.1836C23.2857 13.3924 23.0212 13.5206 22.7379 13.5424H22.6514ZM10.529 13.5424C10.2305 13.5424 9.94415 13.4238 9.73305 13.2127C9.52195 13.0016 9.40332 12.7153 9.40332 12.4168V1.12564C9.40332 0.827097 9.52195 0.5408 9.73305 0.3297C9.94415 0.1186 10.2305 0 10.529 0C10.8276 0 11.1138 0.1186 11.3249 0.3297C11.536 0.5408 11.6546 0.827097 11.6546 1.12564V12.4168C11.6558 12.6981 11.5516 12.9698 11.3625 13.1781C11.1734 13.3865 10.9131 13.5165 10.6329 13.5424H10.529Z" fill="#0C999C"/>
</svg>
