<svg width="17" height="29" viewBox="0 0 17 29" fill="none" xmlns="http://www.w3.org/2000/svg">
<path d="M11.8927 11.275C11.8994 11.3337 11.9065 11.4194 11.9134 11.515C11.9239 11.6603 11.9349 11.8436 11.944 12.0304C12.06 14.4218 12.7274 18.1491 13.5763 21.1378L13.7223 21.6516L13.9574 21.736C14.9909 22.1069 15.8376 23.0741 16.0661 24.1455L15.9194 24.1768L16.0661 24.1455C16.1301 24.4455 16.1483 24.9665 16.1491 26.2729L16.15 27.9999L16.1501 28.15H16H8.5H1H0.849921L0.85 27.9999L0.850911 26.2729C0.851656 24.9665 0.869871 24.4455 0.933871 24.1455L1.08054 24.1768L0.933872 24.1455C1.16217 23.0752 2.00904 22.1069 3.04032 21.7368L3.27286 21.6533L3.44997 21.0212C4.31208 17.9434 4.93981 14.4253 5.05602 12.0304C5.05602 12.0304 5.05602 12.0304 5.05602 12.0304L5.20584 12.0376C5.22188 11.7066 5.24413 11.3869 5.25834 11.275H11.8927ZM11.8927 11.275H12.7847H13.8571H14.0071V11.125V10.0719V9.01879V8.87206L13.8605 8.86883L13.1912 8.85406L12.7763 8.8449L13.1852 8.14182C13.7847 7.1111 13.9464 6.70574 13.9917 6.04065C14.0562 5.09568 13.7087 4.219 13.0021 3.5277L12.8972 3.63493L13.0021 3.5277C12.6308 3.16449 12.2656 2.9139 11.8307 2.75609C11.3978 2.59901 10.9057 2.5375 10.2861 2.5375H9.72143V1.84375V1V0.85H9.57143H8.5H7.42857H7.27857V1V1.84375V2.5375M11.8927 11.275L7.27857 2.5375M4.22374 8.8449L3.80876 8.85406L3.13955 8.86883L2.99286 8.87206V9.01879V10.0719V11.125V11.275H3.14286H4.2153H5.10731L4.22374 8.8449ZM4.22374 8.8449L3.81479 8.14182C3.21526 7.1111 3.05363 6.70574 3.00826 6.04065M4.22374 8.8449L7.27857 2.5375M3.00826 6.04065L3.15791 6.03044L3.00826 6.04065C3.00826 6.04065 3.00826 6.04065 3.00826 6.04065ZM3.00826 6.04065C2.94376 5.09568 3.29128 4.219 3.99791 3.5277L3.99791 3.5277C4.36921 3.16449 4.73435 2.9139 5.16927 2.75609C5.60218 2.59901 6.0943 2.5375 6.71393 2.5375H7.27857M11.1173 5.07632L11.1173 5.07634C11.21 5.13306 11.3514 5.26998 11.4193 5.37099L11.4193 5.37101C11.4749 5.45364 11.5003 5.50503 11.515 5.5629C11.5307 5.6248 11.5367 5.70393 11.5362 5.84711C11.5362 5.84712 11.5362 5.84712 11.5362 5.84713L11.5349 6.15324L10.7265 7.5286L9.94097 8.86483H8.5H7.05918L6.28477 7.54293C6.28477 7.54293 6.28477 7.54292 6.28477 7.54292C5.84659 6.79491 5.62027 6.39452 5.51523 6.12846C5.46408 5.99891 5.44541 5.90986 5.44291 5.83419C5.44039 5.75834 5.45367 5.68557 5.48129 5.5846L5.48129 5.58459C5.50934 5.48205 5.59242 5.3492 5.70623 5.22972C5.82071 5.10951 5.94436 5.0258 6.03508 4.99946C6.03375 4.99985 6.0343 4.99978 6.03736 4.99937C6.04329 4.99858 6.05865 4.99654 6.08802 4.99418C6.12693 4.99106 6.18014 4.98803 6.24725 4.98519C6.38123 4.97952 6.56599 4.97476 6.79307 4.97111C7.24695 4.96382 7.86652 4.96098 8.57976 4.9638L10.9485 4.97308L11.1173 5.07632ZM9.50094 12.1341L9.50094 12.1341C9.58749 13.9561 9.9846 16.6568 10.5001 18.9364C10.6634 19.6583 10.9982 21.0001 11.1376 21.4973C11.0879 21.5014 11.0182 21.5053 10.9215 21.5085C10.5525 21.5205 9.84461 21.5219 8.5 21.5219C7.15539 21.5219 6.44746 21.5205 6.07852 21.5085C5.98259 21.5053 5.91329 21.5015 5.86364 21.4974C6.16679 20.4667 6.71571 18.0287 6.95678 16.6313C7.26201 14.8621 7.52282 12.6116 7.52548 11.7055C7.52564 11.6502 7.52518 11.6028 7.52478 11.5615C7.52393 11.475 7.52336 11.4156 7.52931 11.3667C7.53321 11.3348 7.53871 11.3226 7.54081 11.3189C7.54084 11.3189 7.54086 11.3188 7.5409 11.3188C7.54122 11.3181 7.54209 11.3161 7.54989 11.3121C7.57998 11.2966 7.64919 11.2822 7.81609 11.2769C7.92802 11.2734 8.06851 11.2739 8.24896 11.2745C8.32628 11.2747 8.41092 11.275 8.5038 11.275H9.43794L9.44477 11.3192C9.45782 11.4039 9.48361 11.7689 9.50094 12.1341ZM11.24 21.4824C11.24 21.4825 11.2389 21.4829 11.2367 21.4836C11.2388 21.4827 11.24 21.4823 11.24 21.4824ZM5.76 21.4824C5.76008 21.4824 5.76127 21.4827 5.7633 21.4836C5.76093 21.4829 5.75992 21.4825 5.76 21.4824ZM9.65077 12.127C9.7368 13.9382 10.1323 16.63 10.6464 18.9033C10.8268 19.7009 11.2154 21.2501 11.3179 21.5796C11.3449 21.6667 11.1862 21.6719 8.5 21.6719C5.81382 21.6719 5.65509 21.6667 5.68214 21.5796C5.97239 20.6456 6.55798 18.0607 6.80896 16.6058C7.11389 14.8384 7.37286 12.598 7.37548 11.7051C7.37622 11.4482 7.36045 11.3043 7.42444 11.224C7.51741 11.1074 7.77876 11.125 8.5038 11.125L9.65077 12.127ZM13.277 24.0748L13.2771 24.0748C13.3801 24.1419 13.519 24.281 13.5764 24.372L13.5764 24.372C13.6249 24.4488 13.6482 24.4985 13.6644 24.5989C13.6826 24.7112 13.6906 24.8801 13.6991 25.1959L13.7136 25.7406H8.50525H3.29294L3.29318 25.2974C3.29326 25.1378 3.29959 24.9704 3.30967 24.83C3.32014 24.6841 3.33376 24.582 3.34459 24.5437L3.3446 24.5436C3.36932 24.456 3.4522 24.329 3.56877 24.2103C3.68345 24.0934 3.80426 24.0114 3.88713 23.9858C3.88928 23.9856 3.89463 23.9849 3.9044 23.984C3.92172 23.9824 3.94623 23.9808 3.97846 23.9791C4.04269 23.9758 4.13293 23.9727 4.24823 23.9699C4.47857 23.9641 4.80525 23.9594 5.21614 23.9558C6.03772 23.9485 7.19368 23.9459 8.58403 23.9486L13.0971 23.9575L13.277 24.0748Z" fill="white" stroke="white" stroke-width="0.3"/>
</svg>
