<svg width="31" height="31" viewBox="0 0 31 31" fill="none" xmlns="http://www.w3.org/2000/svg">
<circle cx="15.5" cy="15.5" r="4.5" fill="#DB1515"/>
<path fill-rule="evenodd" clip-rule="evenodd" d="M14.0173 0.0594959C10.3757 0.436269 7.10955 1.98489 4.54729 4.54979C-1.51697 10.6201 -1.51558 20.4268 4.55038 26.4843C7.01435 28.9449 10.0038 30.4126 13.5933 30.9241C14.3128 31.0266 16.692 31.0249 17.439 30.9214C20.9508 30.4348 24.0083 28.9283 26.4548 26.4794C28.9091 24.0227 30.4329 20.9042 30.8944 17.3939C31.0129 16.4925 30.996 14.3632 30.8629 13.4231C30.6488 11.9106 30.1714 10.2981 29.5459 8.97462C29.3824 8.62858 29.2486 8.31607 29.2486 8.28018C29.2486 8.24423 29.6138 7.84539 30.0601 7.39375C30.9513 6.49173 31.0564 6.30914 30.9795 5.7956C30.9306 5.46914 30.6614 5.07382 30.3854 4.92287C30.2104 4.8272 29.9581 4.81108 28.2191 4.78428L26.2508 4.75397L26.2205 2.78372C26.1938 1.04292 26.1777 0.790369 26.0821 0.615228C25.9313 0.338908 25.5364 0.0694988 25.2102 0.0205152C24.6972 -0.0564762 24.5148 0.048705 23.6137 0.940896C23.1625 1.38763 22.7646 1.75313 22.7292 1.75313C22.6939 1.75313 22.3545 1.60654 21.9749 1.42734C20.6887 0.820195 19.2833 0.398379 17.785 0.169891C16.8606 0.0288812 14.8754 -0.0292564 14.0173 0.0594959ZM16.7472 2.4846C17.5157 2.55972 18.4044 2.72885 19.1348 2.9391C19.6613 3.09059 20.6674 3.46531 20.8305 3.57055C20.9035 3.61765 20.7522 3.79946 20.0613 4.49469C19.5883 4.9707 19.1727 5.43701 19.1377 5.53086C19.0976 5.63871 19.0742 6.53078 19.0742 7.95403V10.2066L16.7479 12.5423C14.6584 14.6402 14.4142 14.9057 14.3495 15.1502C14.0939 16.1143 14.9019 16.9231 15.865 16.6673C16.1093 16.6025 16.3746 16.358 18.4703 14.2665L20.8037 11.9378H23.054C24.4758 11.9378 25.367 11.9144 25.4747 11.8742C25.5685 11.8392 26.0343 11.4232 26.5098 10.9497C27.2044 10.2581 27.386 10.1067 27.433 10.1797C27.5382 10.3431 27.9125 11.3501 28.0639 11.8772C29.6448 17.3809 27.4826 23.2681 22.7193 26.4293C21.1356 27.4803 19.3538 28.1654 17.4087 28.4713C16.5063 28.6131 14.4567 28.6118 13.569 28.4687C7.80063 27.5389 3.4582 23.1833 2.55783 17.4242C2.41423 16.5058 2.41423 14.5233 2.55783 13.605C3.3865 8.30437 7.17611 4.11706 12.3215 2.81652C13.7109 2.46539 15.3172 2.34487 16.7472 2.4846ZM23.9428 6.49901C24.0914 6.79982 24.415 7.06117 24.7406 7.14325C24.8846 7.1795 25.4192 7.20921 25.9288 7.20921H26.8552L25.7058 8.36105L24.5563 9.51289H23.0265H21.4967V7.98276V6.45257L22.6322 5.31443L23.7678 4.17629L23.7986 5.22289C23.8239 6.08016 23.85 6.31108 23.9428 6.49901ZM14.5623 6.00287C12.3137 6.23766 10.3955 7.15841 8.77441 8.78117C7.64093 9.91573 6.92932 11.0524 6.45209 12.4907C5.66291 14.869 5.82116 17.402 6.90025 19.6653C7.53367 20.9937 8.87549 22.5586 10.0833 23.3775C12.6169 25.0952 15.6529 25.5265 18.5143 24.5752C19.9709 24.0909 21.0862 23.3917 22.2257 22.248C23.0623 21.4085 23.548 20.7446 24.0342 19.7761C24.5953 18.6586 24.8933 17.5825 25.0164 16.2299C25.0958 15.3562 25.0472 15.0854 24.7498 14.7465C24.2781 14.2086 23.5038 14.1629 23.0028 14.6432C22.753 14.8827 22.6651 15.1813 22.5944 16.0299C22.4458 17.816 21.7573 19.321 20.5284 20.5463C17.724 23.3425 13.2532 23.3438 10.474 20.5491C7.6766 17.7362 7.67732 13.2796 10.4755 10.4803C11.7077 9.24766 13.2028 8.56274 14.9863 8.41403C15.834 8.34335 16.1323 8.25532 16.3716 8.00525C16.851 7.50414 16.8056 6.72865 16.2692 6.25718C15.9076 5.93934 15.6039 5.89411 14.5623 6.00287Z" fill="#0C999C"/>
</svg>
