<svg width="47.20401785714285" height="46.155460465116285" viewBox="2.591517857142857 1.0662697674418586 47.20401785714285 46.155460465116285" fill="none" xmlns="http://www.w3.org/2000/svg">
<g clip-path="url(#clip0_3_157)">
<path fill-rule="evenodd" clip-rule="evenodd" d="M49.2541 47.9996H22.5884C32.2692 44.4475 41.2835 39.2924 49.2541 32.75V47.9996Z" fill="#DB1515"></path>
<path fill-rule="evenodd" clip-rule="evenodd" d="M49.2541 11.2099V26.2407C43.8689 30.8118 38.1389 34.9606 32.1151 38.6499C24.8312 43.1019 17.3873 46.4809 9.50586 47.0363C6.06376 47.2804 0.31571 46.7838 0.0127384 42.4076C-0.496423 35.0311 16.3816 21.0396 22.1928 17.9384C19.6344 20.3622 17.9386 22.8449 17.7198 24.1493C17.5725 25.0246 18.5992 25.4369 19.5502 24.6164C30.857 15.3379 40.956 10.9406 49.2541 11.2099Z" fill="#005958"></path>
<path fill-rule="evenodd" clip-rule="evenodd" d="M0.029541 0V31.9425C7.99518 21.8182 19.8363 13.5496 31.1389 8.19707C33.8193 6.93469 36.7523 8.01192 35.3468 11.1048C38.831 9.31218 46.1991 7.69633 49.2541 7.77207V0H0.029541Z" fill="#005958"></path>
<path fill-rule="evenodd" clip-rule="evenodd" d="M116.421 23.4168C117.431 23.4309 118.425 23.1721 119.3 22.6678C120.161 22.1684 120.868 21.4402 121.34 20.5638C121.854 19.5999 122.111 18.5207 122.089 17.4289C122.109 16.3414 121.851 15.267 121.34 14.3066C120.868 13.4302 120.161 12.702 119.3 12.2026C118.42 11.7102 117.429 11.4517 116.421 11.4517C115.414 11.4517 114.422 11.7102 113.543 12.2026C112.684 12.7027 111.981 13.431 111.511 14.3066C110.998 15.2707 110.74 16.3498 110.762 17.4415C110.743 18.5262 111.001 19.5978 111.511 20.5554C111.982 21.4316 112.687 22.1599 113.547 22.6594C114.42 23.1653 115.413 23.4269 116.421 23.4168ZM116.421 28.3359C114.343 28.3697 112.288 27.8867 110.442 26.9304C108.707 26.0282 107.259 24.6604 106.258 22.9806C105.258 21.3008 104.745 19.3754 104.778 17.4205C104.748 15.4641 105.264 13.5381 106.268 11.8589C107.272 10.1796 108.725 8.81377 110.463 7.91475C112.321 6.98754 114.368 6.50488 116.444 6.50488C118.521 6.50488 120.568 6.98754 122.426 7.91475C124.166 8.81128 125.62 10.1767 126.624 11.8566C127.627 13.5365 128.141 15.4638 128.107 17.4205C128.14 19.3801 127.624 21.3098 126.616 22.9907C125.608 24.6717 124.149 26.0365 122.405 26.9304C120.557 27.8867 118.501 28.3697 116.421 28.3359ZM93.993 23.6567C94.7981 23.7119 95.5991 23.502 96.2737 23.0591C96.5313 22.8579 96.7365 22.5976 96.872 22.3002C97.0076 22.0028 97.0694 21.6771 97.0522 21.3507C97.0522 19.8695 96.0325 19.1303 93.993 19.1331H89.7346V23.6567H93.993ZM83.894 6.92588H101.412V11.5125H89.7346V14.8789H95.1628C97.6876 14.8789 99.6373 15.4189 101.012 16.499C102.386 17.579 103.065 19.1289 103.049 21.1487C103.049 23.2527 102.291 24.9359 100.772 26.1099C99.2529 27.2839 97.1195 27.8941 94.3844 27.8941H83.8645L83.894 6.92588ZM81.0788 23.2106V32.203H75.6506V27.9151H58.4275V6.92588H64.2765V23.2106H72.3432V6.92588H78.1922V23.2106H81.0788Z" fill="#005958"></path>
<path fill-rule="evenodd" clip-rule="evenodd" d="M124.273 41.5235C124.581 41.5317 124.884 41.4529 125.149 41.2963C125.393 41.1482 125.581 40.9232 125.683 40.6567V39.975H124.32C123.571 39.975 123.192 40.2233 123.192 40.7282C123.188 40.8411 123.212 40.9533 123.262 41.0547C123.312 41.1561 123.386 41.2434 123.478 41.3089C123.713 41.4639 123.992 41.5392 124.273 41.5235ZM124.475 37.2146C125.038 37.1764 125.594 37.3556 126.028 37.7153C126.22 37.9097 126.367 38.1428 126.461 38.3991C126.554 38.6553 126.592 38.9287 126.571 39.2007V42.1463H125.729V41.5025C125.576 41.7359 125.356 41.9177 125.098 42.0243C124.79 42.1522 124.459 42.2138 124.126 42.2052C123.656 42.228 123.192 42.0883 122.813 41.8097C122.653 41.6878 122.525 41.5295 122.438 41.348C122.352 41.1665 122.31 40.967 122.317 40.7661C122.311 40.5684 122.351 40.372 122.432 40.1919C122.514 40.0118 122.636 39.8527 122.788 39.7267C123.227 39.43 123.754 39.292 124.282 39.3354H125.683V39.1629C125.694 39.001 125.67 38.8387 125.612 38.687C125.555 38.5353 125.466 38.3976 125.351 38.2834C125.075 38.0627 124.726 37.9545 124.374 37.9804C124.088 37.983 123.804 38.0313 123.533 38.1235C123.279 38.208 123.042 38.3377 122.834 38.5064L122.451 37.8416C122.72 37.6306 123.028 37.4735 123.356 37.3787C123.719 37.2673 124.096 37.212 124.475 37.2146ZM121.016 37.2609V42.1505H120.133V38.0351H118.029L117.974 39.1334C117.956 39.6855 117.897 40.2355 117.797 40.7787C117.739 41.1582 117.595 41.5194 117.377 41.8349C117.283 41.9634 117.159 42.0667 117.016 42.1358C116.873 42.2048 116.715 42.2373 116.556 42.2305C116.371 42.2283 116.186 42.2 116.009 42.1463L116.068 41.4015C116.14 41.419 116.213 41.4289 116.287 41.4309C116.4 41.4345 116.513 41.406 116.611 41.3487C116.709 41.2914 116.789 41.2076 116.842 41.1069C116.971 40.8697 117.053 40.6095 117.082 40.3411C117.116 40.0465 117.154 39.6257 117.183 39.0787L117.263 37.2693L121.016 37.2609ZM113.042 41.4309C113.338 41.4361 113.629 41.3604 113.884 41.2121C114.128 41.0682 114.326 40.8581 114.456 40.6062C114.597 40.327 114.671 40.0185 114.671 39.7057C114.671 39.3928 114.597 39.0843 114.456 38.8052C114.323 38.5528 114.12 38.344 113.871 38.2035C113.612 38.066 113.323 37.9942 113.03 37.9942C112.736 37.9942 112.447 38.066 112.188 38.2035C111.939 38.3449 111.735 38.5534 111.599 38.8052C111.455 39.0835 111.38 39.3923 111.38 39.7057C111.38 40.019 111.455 40.3278 111.599 40.6062C111.735 40.8591 111.939 41.069 112.188 41.2121C112.447 41.3618 112.743 41.4375 113.042 41.4309ZM113.042 42.2052C112.585 42.2126 112.134 42.1009 111.734 41.8812C111.354 41.6762 111.039 41.3686 110.825 40.9933C110.609 40.5983 110.496 40.1556 110.496 39.7057C110.496 39.2558 110.609 38.813 110.825 38.4181C111.038 38.0431 111.353 37.7366 111.734 37.5344C112.137 37.3242 112.585 37.2144 113.04 37.2144C113.495 37.2144 113.943 37.3242 114.347 37.5344C114.725 37.7391 115.038 38.0451 115.252 38.4181C115.464 38.814 115.575 39.2563 115.575 39.7057C115.575 40.155 115.464 40.5974 115.252 40.9933C115.037 41.3665 114.724 41.6736 114.347 41.8812C113.947 42.0998 113.498 42.2114 113.042 42.2052ZM107.496 40.1012H106.482V42.1673H105.62V37.2609H106.503V39.327H107.538L109.125 37.2609H110.076L108.22 39.6131L110.202 42.1379H109.163L107.496 40.1012ZM103.882 37.2777V42.1673H96.9217V37.2609H97.8054V41.3762H99.9641V37.2609H100.848V41.3762H102.998V37.2609L103.882 37.2777ZM93.0588 39.2512H95.5205V40.0171H93.042L93.0588 39.2512ZM90.3573 42.222C89.8923 42.2297 89.4331 42.1182 89.0234 41.898C88.6418 41.6921 88.3243 41.3849 88.1061 41.0101C87.888 40.616 87.7736 40.173 87.7736 39.7225C87.7736 39.2721 87.888 38.829 88.1061 38.4349C88.3234 38.0605 88.6411 37.7544 89.0234 37.5512C89.4341 37.3343 89.8929 37.2243 90.3573 37.2314C90.7673 37.2258 91.1727 37.3181 91.5398 37.5007C91.8811 37.6713 92.1627 37.9412 92.3477 38.275L91.6744 38.6958C91.5337 38.4728 91.3362 38.2912 91.1021 38.1698C90.8674 38.0517 90.6074 37.9925 90.3447 37.9973C90.0507 37.9938 89.7609 38.0663 89.5031 38.2077C89.2489 38.3462 89.04 38.5552 88.9014 38.8094C88.7528 39.086 88.6774 39.396 88.6826 39.7099C88.6769 40.0266 88.7522 40.3394 88.9014 40.6188C89.0316 40.8778 89.235 41.0929 89.4863 41.2374C89.7436 41.3802 90.0335 41.4541 90.3279 41.452C90.591 41.4555 90.8509 41.3948 91.0853 41.2752C91.3203 41.1552 91.5182 40.9733 91.6576 40.7493L92.3308 41.17C92.1462 41.505 91.8645 41.7764 91.5229 41.9485C91.1605 42.126 90.7608 42.214 90.3573 42.2052V42.222ZM84.4368 37.9636C84.0439 37.9503 83.6611 38.089 83.3679 38.3507C83.0795 38.6138 82.9007 38.9759 82.8672 39.3648H86.0021C85.9656 38.9779 85.7872 38.6182 85.5014 38.3549C85.2099 38.0927 84.8287 37.9526 84.4368 37.9636ZM86.8521 39.7351C86.8498 39.8238 86.8427 39.9123 86.8311 40.0002H82.8672C82.8884 40.2025 82.9495 40.3985 83.047 40.5769C83.1445 40.7553 83.2765 40.9126 83.4353 41.0396C83.7782 41.307 84.2041 41.4455 84.6387 41.4309C84.9028 41.4413 85.1659 41.3935 85.4095 41.2909C85.6531 41.1884 85.8712 41.0337 86.0484 40.8376L86.5365 41.4099C86.3087 41.6736 86.0198 41.8773 85.6949 42.0032C85.3442 42.1423 84.9696 42.2109 84.5924 42.2052C84.1156 42.2153 83.6439 42.1053 83.2207 41.8854C82.8309 41.6861 82.5078 41.3776 82.2907 40.9975C82.0807 40.6008 81.9709 40.1588 81.9709 39.7099C81.9709 39.261 82.0807 38.819 82.2907 38.4223C82.4954 38.0516 82.7982 37.7444 83.1659 37.5344C83.5515 37.3192 83.9868 37.209 84.4283 37.2146C84.8703 37.2053 85.3065 37.3158 85.6907 37.5344C86.0492 37.7452 86.3409 38.053 86.5323 38.4223C86.7474 38.8261 86.8573 39.2776 86.8521 39.7351ZM76.1639 37.2609H77.0476V39.3354H79.8333V37.2609H80.7169V42.1505H79.8333V40.1012H77.0476V42.1505H76.1639V37.2609ZM73.7907 39.6047C74.0791 39.6673 74.3426 39.8137 74.5481 40.0255C74.6376 40.1196 74.7074 40.2306 74.7537 40.3519C74.7999 40.4733 74.8216 40.6026 74.8174 40.7324C74.8188 41.0177 74.712 41.2928 74.5186 41.5025C74.298 41.7452 74.0182 41.9264 73.7065 42.0285C73.3306 42.1593 72.9347 42.2234 72.5367 42.2178C72.177 42.2187 71.8188 42.1706 71.4721 42.0748C71.1437 41.9831 70.8314 41.8411 70.5463 41.654L70.8114 40.9807C71.0616 41.1333 71.3322 41.2494 71.6151 41.3257C71.9125 41.4081 72.2197 41.4491 72.5283 41.4478C72.8751 41.4644 73.2202 41.3905 73.5298 41.2332C73.6399 41.1799 73.7329 41.0968 73.7983 40.9935C73.8637 40.8902 73.899 40.7706 73.9001 40.6483C73.9039 40.5415 73.878 40.4358 73.8252 40.3429C73.7725 40.2501 73.6949 40.1737 73.6013 40.1223C73.3435 39.9832 73.052 39.9191 72.7597 39.9371H71.8634V39.3101H72.705C72.9715 39.3213 73.2361 39.2602 73.4709 39.1334C73.5575 39.0869 73.63 39.0177 73.6804 38.9332C73.7308 38.8487 73.7572 38.7521 73.757 38.6537C73.7557 38.5444 73.7234 38.4377 73.6638 38.346C73.6042 38.2544 73.5198 38.1816 73.4204 38.1361C73.1368 38.0023 72.8247 37.9402 72.5114 37.9552C71.977 37.9669 71.4515 38.0947 70.9713 38.3297L70.7315 37.648C71.3115 37.3525 71.9531 37.1983 72.604 37.1978C72.9642 37.1925 73.3227 37.248 73.6644 37.3619C73.9464 37.4528 74.2001 37.6151 74.4008 37.8332C74.5733 38.0217 74.6693 38.2677 74.6701 38.5233C74.6722 38.7613 74.5869 38.9919 74.4303 39.1713C74.2572 39.3715 74.0333 39.5212 73.7822 39.6047H73.7907ZM64.8025 37.2609H65.6862V40.8166L68.6864 37.2567H69.4859V42.1463H68.6023V38.5906L65.6146 42.1505H64.8025V37.2609ZM61.0153 41.4688C61.3096 41.4746 61.6 41.402 61.8569 41.2584C62.097 41.1201 62.2937 40.9175 62.425 40.6735C62.5605 40.4139 62.6299 40.1248 62.627 39.8319C62.6393 39.618 62.6084 39.4038 62.5361 39.2021C62.4638 39.0004 62.3516 38.8153 62.2062 38.6579C61.9795 38.4232 61.687 38.2626 61.3672 38.1973C61.0474 38.132 60.7154 38.1651 60.4148 38.2922C60.1142 38.4193 59.8591 38.6344 59.6832 38.9092C59.5072 39.1841 59.4186 39.5057 59.4289 39.8319C59.4268 40.1257 59.4992 40.4153 59.6393 40.6735C59.7734 40.9169 59.9712 41.1191 60.2116 41.2584C60.4661 41.406 60.7548 41.4844 61.049 41.4856L61.0153 41.4688ZM61.171 37.4124C61.596 37.4046 62.0155 37.5091 62.3871 37.7153C62.741 37.9115 63.0326 38.2031 63.2287 38.5569C63.4401 38.9391 63.5475 39.37 63.5401 39.8067C63.5502 40.2487 63.4397 40.6852 63.2203 41.0691C63.0094 41.429 62.6999 41.7211 62.3282 41.9106C61.9207 42.1181 61.4684 42.2221 61.0111 42.2136C60.647 42.2345 60.2831 42.1691 59.9489 42.0229C59.6148 41.8767 59.3199 41.6537 59.0881 41.372C58.5972 40.6707 58.3584 39.8238 58.4106 38.9693C58.3632 38.1382 58.5797 37.3135 59.0292 36.6128C59.4954 36.0107 60.1716 35.6065 60.9228 35.4809L63.153 34.9844L63.2792 35.7965L61.2257 36.2383C60.6875 36.3293 60.189 36.58 59.795 36.9579C59.4548 37.3673 59.266 37.8815 59.2606 38.4138C59.4653 38.1063 59.7447 37.8558 60.0728 37.6859C60.4249 37.5154 60.8137 37.4344 61.2047 37.4502L61.171 37.4124Z" fill="#DB1515"></path>
</g>
<defs>
<clipPath id="clip0_3_157">
<rect width="128.086" height="48" fill="white"></rect>
</clipPath>
</defs>
</svg>