<svg width="24" height="24" viewBox="0 0 24 24" fill="none" xmlns="http://www.w3.org/2000/svg">
<g clip-path="url(#clip0_3_878)">
<path d="M24 12.002C23.9996 9.70884 23.3422 7.46378 22.1056 5.53263C20.8689 3.60147 19.1048 2.06509 17.0221 1.10537C14.9394 0.145648 12.6254 -0.197218 10.3538 0.117358C8.08235 0.431935 5.94854 1.39078 4.20505 2.88038C2.46156 4.36999 1.18139 6.32796 0.516104 8.52252C-0.149185 10.7171 -0.171736 13.0563 0.451122 15.2633C1.07398 17.4702 2.31616 19.4525 4.03061 20.9755C5.74506 22.4984 7.85999 23.4982 10.125 23.8565V15.4708H7.0785V12.002H10.125V9.35827C10.125 6.35077 11.9167 4.68952 14.6572 4.68952C15.5573 4.70201 16.4551 4.78021 17.3438 4.92352V7.87702H15.8302C15.5723 7.84277 15.31 7.86699 15.0628 7.9479C14.8155 8.0288 14.5896 8.16432 14.4018 8.34439C14.214 8.52447 14.0691 8.7445 13.978 8.98817C13.8868 9.23184 13.8516 9.4929 13.875 9.75202V12.002H17.2035L16.671 15.4708H13.875V23.8565C16.6978 23.41 19.2686 21.9706 21.1248 19.7974C22.9809 17.6242 24.0005 14.86 24 12.002Z" fill="#80899E"/>
</g>
<defs>
<clipPath id="clip0_3_878">
<rect width="24" height="24" fill="white"/>
</clipPath>
</defs>
</svg>
