<svg width="24" height="24" viewBox="0 0 24 24" fill="none" xmlns="http://www.w3.org/2000/svg">
<circle cx="12" cy="12" r="12" fill="#80899E"/>
<path fill-rule="evenodd" clip-rule="evenodd" d="M14.3558 6.17188H9.64411C7.72924 6.17188 6.17139 7.72973 6.17139 9.6446V14.3563C6.17139 16.2712 7.72924 17.829 9.64411 17.829H14.3558C16.2707 17.829 17.8285 16.2712 17.8285 14.3563V9.6446C17.8285 7.72973 16.2707 6.17188 14.3558 6.17188ZM16.656 14.3555C16.656 15.6257 15.6262 16.6555 14.3559 16.6555H9.64426C8.374 16.6555 7.34424 15.6257 7.34424 14.3555V9.64377C7.34424 8.37349 8.374 7.34375 9.64426 7.34375H14.3559C15.6262 7.34375 16.656 8.37349 16.656 9.64377V14.3555ZM8.98511 12.0013C8.98511 10.3388 10.3376 8.98633 12.0001 8.98633C13.6625 8.98633 15.015 10.3388 15.015 12.0013C15.015 13.6637 13.6625 15.0162 12.0001 15.0162C10.3376 15.0162 8.98511 13.6637 8.98511 12.0013ZM12 13.8427C10.9825 13.8427 10.1577 13.018 10.1577 12.0005C10.1577 10.9831 10.9825 10.1583 12 10.1583C13.0174 10.1583 13.8422 10.9831 13.8422 12.0005C13.8422 13.0179 13.0174 13.8427 12 13.8427ZM15.0207 9.73005C15.4197 9.73005 15.7432 9.4066 15.7432 9.0076C15.7432 8.60861 15.4197 8.28516 15.0207 8.28516C14.6217 8.28516 14.2983 8.60861 14.2983 9.0076C14.2983 9.4066 14.6217 9.73005 15.0207 9.73005Z" fill="white"/>
</svg>
