<svg width="160" height="34" viewBox="0 0 160 34" fill="none" xmlns="http://www.w3.org/2000/svg">
<path fill-rule="evenodd" clip-rule="evenodd" d="M6.55571 6.51489H28.2715V27.8921H6.55571V6.51489ZM4.09732 4.07178H30.7298V30.3352H4.09732V4.07178Z" fill="#668A97"/>
<path fill-rule="evenodd" clip-rule="evenodd" d="M17.4136 14.0479C19.2574 14.0479 20.8963 15.6766 20.8963 17.5089C20.8963 19.3413 19.2574 20.97 17.4136 20.97C15.5698 20.97 13.9308 19.3413 13.9308 17.5089C13.9308 15.473 15.5698 14.0479 17.4136 14.0479Z" fill="#E3000F"/>
<path fill-rule="evenodd" clip-rule="evenodd" d="M149.142 10.5867C149.142 9.36511 149.142 8.55074 148.937 8.14355C148.732 7.73637 148.528 7.53277 148.118 7.53277C147.708 7.53277 147.503 7.73637 147.298 7.93996C147.093 8.14355 147.093 8.95792 147.093 10.3831V22.8022C147.093 24.431 147.093 25.2453 147.298 25.6525C147.503 26.0597 147.708 26.2633 148.118 26.2633C148.528 26.2633 148.937 26.0597 148.937 25.6525C149.142 25.2453 149.142 24.2274 149.142 22.5986V10.5867ZM155.903 19.3412C155.903 21.9879 155.903 23.8202 155.698 25.0418C155.493 26.0597 155.083 27.0777 154.469 28.0956C153.854 29.1136 152.83 29.7244 151.805 30.1316C150.576 30.5388 149.347 30.9459 147.913 30.9459C146.479 30.9459 145.25 30.7424 144.02 30.3352C142.791 29.928 141.972 29.1136 141.357 28.2992C140.743 27.2813 140.333 26.2633 140.128 25.2453C139.923 24.2274 139.923 22.1915 139.923 19.5447V14.8621C139.923 12.2154 139.923 10.3831 140.128 9.16152C140.333 8.14355 140.743 7.12559 141.357 6.10762C141.972 5.08966 142.996 4.47888 144.02 4.0717C145.25 3.66451 146.479 3.25732 147.913 3.25732C149.347 3.25732 150.576 3.46092 151.805 3.8681C153.035 4.27529 153.854 5.08966 154.469 5.90403C155.083 6.92199 155.493 7.93996 155.698 8.95792C155.903 9.97589 155.903 12.0118 155.903 14.6585V19.3412ZM130.09 8.34714V15.0657C130.294 15.0657 130.499 15.0657 130.499 15.0657C131.114 15.0657 131.524 14.8621 131.729 14.6585C131.933 14.2513 132.138 13.6406 132.138 12.6226V10.5867C132.138 9.77229 131.933 9.16152 131.729 8.75433C131.729 8.55074 131.114 8.34714 130.09 8.34714ZM123.124 3.8681H130.09C131.933 3.8681 133.367 4.0717 134.392 4.27529C135.416 4.47888 136.236 5.08966 136.645 5.49685C137.055 6.10762 137.465 6.7184 137.67 7.53277C137.875 8.34714 137.875 9.5687 137.875 11.1974V13.437C137.875 15.0657 137.67 16.2873 137.26 17.1016C136.85 17.916 136.236 18.5268 135.416 18.934C134.392 19.3412 133.163 19.5447 131.729 19.5447H129.885V30.1316H122.919V3.8681H123.124ZM120.461 30.3352H113.496V9.16152H111.447V30.3352H104.481V3.8681H120.461V30.3352ZM86.6581 23.2094V19.5447C86.6581 18.5268 86.4533 17.7124 86.2484 17.5088C86.0435 17.3052 85.4289 17.1016 84.4046 17.1016V25.8561C85.2241 25.8561 85.8387 25.6525 86.2484 25.4489C86.6581 25.2453 86.6581 24.431 86.6581 23.2094ZM93.6236 24.0238C93.6236 26.0597 93.4187 27.4849 92.8041 28.2992C92.3944 29.1136 91.5749 29.7244 90.5506 29.928C89.5262 30.1316 87.8873 30.3352 85.6338 30.3352H77.644V3.8681H91.1652V8.55074H84.6095V13.0298H85.6338C87.6825 13.0298 89.3214 13.2334 90.5506 13.437C91.5749 13.6406 92.3944 14.2513 93.009 15.0657C93.6236 15.8801 93.8284 17.3052 93.8284 19.1376V24.0238H93.6236ZM67.6056 8.34714V15.0657C67.8105 15.0657 68.0154 15.0657 68.0154 15.0657C68.63 15.0657 69.0397 14.8621 69.2446 14.6585C69.6543 14.2513 69.6543 13.6406 69.6543 12.6226V10.5867C69.6543 9.77229 69.4494 9.16152 69.2446 8.75433C69.0397 8.55074 68.4251 8.34714 67.6056 8.34714ZM60.6402 3.8681H67.6056C69.4494 3.8681 70.8835 4.0717 71.9078 4.27529C72.9321 4.47888 73.7516 5.08966 74.1613 5.49685C74.5711 6.10762 74.9808 6.7184 75.1857 7.53277C75.3905 8.34714 75.3905 9.5687 75.3905 11.1974V13.437C75.3905 15.0657 75.1857 16.2873 74.7759 17.1016C74.3662 17.916 73.7516 18.5268 72.9321 18.934C71.9078 19.3412 70.6786 19.5447 69.2446 19.5447H67.6056V30.1316H60.6402V3.8681ZM51.831 20.7663C51.4213 17.7124 51.2164 14.0477 50.8067 9.5687C50.1921 14.6585 49.5775 18.3232 49.5775 20.7663H51.831ZM55.5186 3.8681L59.411 30.3352H52.2407L51.831 25.6525H49.3726L48.9629 30.3352H41.7926L45.2753 3.8681H55.5186Z" fill="#668A97"/>
</svg>
