<svg width="170" height="146" viewBox="0 0 170 146" fill="none" xmlns="http://www.w3.org/2000/svg">
<path d="M25.2257 85.0876L1 92.4453L7.31974 145L47.3448 126.08L45.7648 117.672L25.2257 85.0876Z" fill="white"/>
<path d="M135.821 23.073H127.395V84.0365L135.821 79.8321V23.073Z" fill="white"/>
<path d="M121.075 30.9563H112.649V77.73L115.809 80.8833C116.651 81.7242 117.915 86.8395 118.442 89.2921L121.075 87.1899V30.9563Z" fill="white"/>
<path d="M106.856 38.314H97.9026V72.4745L106.856 75.1023V38.314Z" fill="white"/>
<path d="M91.5828 49.3503H83.1565V69.3211L91.5828 70.8978V49.3503Z" fill="white"/>
<path d="M77.3634 60.387H68.4104V68.7957H77.3634V60.387Z" fill="white"/>
<path d="M77.1546 68.9763C73.9479 68.7182 70.9133 68.5676 68.1584 68.5676V60.6511H77.1762V68.9763H77.1546Z" stroke="#0C999C" stroke-width="2" stroke-linecap="round" stroke-linejoin="round"/>
<path d="M91.8117 71.041C88.8417 70.4387 85.8502 69.9439 82.8586 69.5782V49.2708H91.8548V70.7829L91.8117 71.041Z" stroke="#0C999C" stroke-width="2" stroke-linecap="round" stroke-linejoin="round"/>
<path d="M106.662 38.3643V74.5692L106.317 75.3651C103.521 74.1816 100.644 73.1968 97.7085 72.418V38.3643H106.662Z" stroke="#0C999C" stroke-width="2" stroke-linecap="round" stroke-linejoin="round"/>
<path d="M127.065 84.5508V22.5098H136.104V79.8826L136.255 80.2484C133.07 81.5606 129.927 83.0234 127.065 84.5508Z" stroke="#0C999C" stroke-width="2" stroke-linecap="round" stroke-linejoin="round"/>
<path d="M121.34 30.5771V87.4768L121.555 87.8209C120.187 88.6907 118.865 89.6314 117.595 90.639C118.12 89.268 118.247 87.7765 117.961 86.3366C117.565 84.6642 116.822 83.0936 115.78 81.7262C114.738 80.3589 113.421 79.2253 111.913 78.3987V78.3987L112.344 77.8394V30.5771H121.34Z" stroke="#0C999C" stroke-width="2" stroke-linecap="round" stroke-linejoin="round"/>
<path d="M97.6228 38.3642V72.418C95.7289 71.9232 93.7919 71.4714 91.8119 71.0627V70.8046V49.2924H82.9879V69.5999C81.0509 69.3418 79.1355 69.1481 77.2631 68.9975V60.6723H68.2454V68.5888C65.1258 68.5161 62.0061 68.7322 58.9263 69.2342C57.6995 69.4924 56.4082 69.815 55.0308 70.2452C53.4075 65.1485 52.6082 59.8254 52.6633 54.4768C52.6382 46.5938 54.3626 38.8034 57.7123 31.6666C61.0619 24.5299 65.9533 18.2245 72.0343 13.2047C78.1153 8.18499 85.2346 4.57574 92.879 2.63709C100.524 0.69844 108.503 0.478665 116.243 1.99346C123.982 3.50826 131.29 6.71996 137.638 11.3973C143.987 16.0746 149.218 22.101 152.956 29.0425C156.694 35.984 158.845 43.6677 159.254 51.5402C159.664 59.4126 158.321 67.2778 155.323 74.5692H155.087C148.594 75.7077 142.263 77.6291 136.233 80.2914L136.083 79.9257V22.5098H127.043V84.5724C125.063 85.6265 123.212 86.7236 121.534 87.7777L121.319 87.4334V30.5769H112.322V77.7314L111.892 78.2908C110.102 77.1263 108.207 76.1324 106.232 75.3221L106.662 74.5692V38.3642H97.6228Z" stroke="#0C999C" stroke-width="2" stroke-linecap="round" stroke-linejoin="round"/>
<path d="M27.2239 115.636C26.4291 115.726 25.6787 116.049 25.0677 116.565C24.4567 117.082 24.0125 117.767 23.7911 118.535C23.5697 119.304 23.5812 120.12 23.824 120.882C24.0668 121.644 24.5301 122.317 25.1553 122.816C25.7805 123.314 26.5396 123.617 27.3367 123.684C28.1337 123.752 28.933 123.582 29.6335 123.196C30.3339 122.81 30.9041 122.225 31.272 121.515C31.64 120.805 31.7891 120.002 31.7005 119.207C31.6417 118.678 31.4791 118.167 31.2221 117.701C30.9652 117.236 30.6189 116.825 30.2031 116.494C29.7873 116.162 29.3101 115.915 28.7989 115.768C28.2877 115.621 27.7525 115.576 27.2239 115.636V115.636ZM6.51974 144.978L1.52661 91.9727L24.878 84.8091L45.6683 118.368L46.7874 126.973L6.51974 144.978Z" stroke="#0C999C" stroke-width="2" stroke-linecap="round" stroke-linejoin="round"/>
<path d="M106.533 120.863C81.5029 122.735 76.4021 106.343 45.5826 118.389L24.8784 84.8091C32.4757 80.5066 45.3243 73.2785 55.0093 70.2238C56.3651 69.7935 57.678 69.4709 58.9047 69.2128C61.9845 68.7108 65.1042 68.4948 68.2238 68.5674C70.9786 68.5674 74.0132 68.718 77.22 68.9762C79.0924 69.1483 81.0078 69.3418 82.9448 69.5784C85.9364 69.9657 88.928 70.4389 91.898 71.0413C93.8781 71.45 95.8151 71.8802 97.709 72.3965C100.644 73.1753 103.521 74.1601 106.318 75.3437C108.293 76.154 110.188 77.1479 111.978 78.3124V78.3124C113.486 79.139 114.803 80.2727 115.845 81.64C116.886 83.0074 117.629 84.5779 118.026 86.2503C118.312 87.6903 118.185 89.1818 117.66 90.5528C118.93 89.5452 120.252 88.6045 121.62 87.7347C123.299 86.6376 125.15 85.5835 127.13 84.5294C130.014 83.002 133.134 81.5177 136.32 80.227C142.325 77.5935 148.626 75.6938 155.087 74.5693H155.323C160.639 73.8809 168.473 74.3542 168.99 81.1951C169.808 92.1232 121.125 119.745 106.533 120.863Z" stroke="#0C999C" stroke-width="2" stroke-linecap="round" stroke-linejoin="round"/>
<path d="M24.8784 84.8091C32.4757 80.5066 45.3243 73.2785 55.0092 70.2238C56.3651 69.7935 57.678 69.4709 58.9047 69.2128C61.9845 68.7108 65.1042 68.4948 68.2238 68.5674C70.9786 68.5674 74.0132 68.718 77.22 68.9762C79.0924 69.1483 81.0078 69.3418 82.9448 69.5784C85.9364 69.9657 88.928 70.4389 91.898 71.0413C93.878 71.45 95.8151 71.8802 97.709 72.3965C100.644 73.1753 103.521 74.1601 106.318 75.3437C108.293 76.154 110.188 77.1479 111.978 78.3124V78.3124C113.486 79.139 114.803 80.2727 115.845 81.64C116.886 83.0074 117.629 84.5779 118.026 86.2503C118.312 87.6903 118.185 89.1818 117.66 90.5528C113.549 100.276 85.5705 92.0156 79.8672 90.5528" stroke="#0C999C" stroke-width="2" stroke-linecap="round" stroke-linejoin="round"/>
<path d="M45.582 118.369C76.4446 106.343 81.5023 122.671 106.532 120.842C121.146 119.767 169.807 92.1022 168.946 81.1095C168.451 74.2902 160.596 73.7955 155.28 74.4839H155.043C148.55 75.6224 142.22 77.5438 136.19 80.206C133.026 81.5183 129.884 83.0026 127 84.5085C125.02 85.5626 123.169 86.6597 121.49 87.7137C120.122 88.5836 118.8 89.5242 117.53 90.5318" stroke="#0C999C" stroke-width="2" stroke-linecap="round" stroke-linejoin="round"/>
<path d="M45.5822 118.368L46.6798 126.973L6.54128 145L1.52661 91.9941L24.7919 84.8091L45.5822 118.368Z" stroke="#0C999C" stroke-width="2" stroke-linecap="round" stroke-linejoin="round"/>
<path d="M27.224 115.636C28.019 115.547 28.8224 115.696 29.5327 116.064C30.243 116.432 30.8284 117.002 31.2147 117.702C31.6011 118.402 31.7712 119.201 31.7034 119.997C31.6357 120.794 31.3332 121.553 30.8342 122.178C30.3353 122.803 29.6622 123.266 28.9 123.509C28.1378 123.751 27.3207 123.763 26.552 123.541C25.7833 123.32 25.0975 122.876 24.5812 122.265C24.0649 121.655 23.7414 120.905 23.6513 120.11C23.5885 119.581 23.6314 119.045 23.7775 118.533C23.9236 118.021 24.1699 117.543 24.5023 117.127C24.8346 116.71 25.2463 116.364 25.7136 116.108C26.1808 115.852 26.6942 115.692 27.224 115.636V115.636Z" stroke="#0C999C" stroke-width="2" stroke-linecap="round" stroke-linejoin="round"/>
<path d="M127.065 84.5508V22.5098H136.083V79.8826" stroke="#0C999C" stroke-width="2" stroke-linecap="round" stroke-linejoin="round"/>
<path d="M112.344 77.7317V30.5771H121.34V87.4337" stroke="#0C999C" stroke-width="2" stroke-linecap="round" stroke-linejoin="round"/>
<path d="M97.6228 72.4611V72.3965V38.3643H106.619V74.5477" stroke="#0C999C" stroke-width="2" stroke-linecap="round" stroke-linejoin="round"/>
<path d="M82.8799 69.4491V49.2708H91.8761V70.7829" stroke="#0C999C" stroke-width="2" stroke-linecap="round" stroke-linejoin="round"/>
<path d="M68.1584 68.7182V68.5676V60.6511H77.1762V68.8472" stroke="#0C999C" stroke-width="2" stroke-linecap="round" stroke-linejoin="round"/>
<path d="M55.0092 70.3741C54.9999 70.3243 54.9999 70.2732 55.0092 70.2235C53.3859 65.1267 52.5867 59.8037 52.6418 54.4552C52.6276 46.5776 54.3602 38.7948 57.7152 31.6666C61.0702 24.5384 65.9639 18.242 72.0446 13.2304C78.1253 8.2188 85.2416 4.61658 92.8817 2.68283C100.522 0.749088 108.496 0.531819 116.23 2.04682C123.964 3.56182 131.266 6.77143 137.611 11.4446C143.955 16.1177 149.185 22.1384 152.923 29.0734C156.662 36.0084 158.816 43.6853 159.231 51.552C159.646 59.4187 158.311 67.2795 155.323 74.569C155.323 74.569 155.323 74.569 155.323 74.569" stroke="#0C999C" stroke-width="2" stroke-linecap="round" stroke-linejoin="round"/>
</svg>
