<svg width="504.308594" height="457.185547" viewBox="0 0 504.309 457.186" fill="none" xmlns="http://www.w3.org/2000/svg" xmlns:xlink="http://www.w3.org/1999/xlink">
	<desc>
			Created with Pixso.
	</desc>
	<defs/>
	<g opacity="0.400000">
		<path id="Vector" d="M193.51 264.72C191.21 264.29 189.11 263.12 187.6 261.41C185.21 258.44 185.71 254.24 188.96 249.93L224.13 203.12C228.95 196.71 238.9 191.35 248.35 190.07C253.72 189.36 258.28 190.08 261.18 192.11L297.43 217.35C298.62 218.14 299.55 219.23 300.1 220.49C300.66 221.75 300.82 223.12 300.55 224.43C299.54 231.26 290.5 238.86 279.51 242.18L208.12 263.66C203.48 265.25 198.43 265.62 193.51 264.72ZM256.7 191.59C254.03 191.05 251.28 190.99 248.62 191.43C239.54 192.66 229.98 197.8 225.37 203.93L190.2 250.74C187.37 254.61 186.79 258.09 188.8 260.59C191.73 264.26 199.17 264.97 207.62 262.39L279.04 240.81C291.01 237.2 298.32 229.5 299.12 224.16C299.34 223.1 299.23 222 298.8 220.99C298.36 219.97 297.62 219.09 296.67 218.45L260.43 193.2C259.31 192.44 258.04 191.89 256.7 191.59Z" fill="#FFFFFF" fill-opacity="1.000000" fill-rule="nonzero"/>
		<path id="Vector" d="M190.58 270.76C188.39 270.3 186.38 269.2 184.86 267.62C182.14 264.62 182.27 260.37 185.27 255.68L218.58 203.69C226.25 191.66 248.04 183.78 257.92 189.35L300.72 213.36C302.1 214.08 303.25 215.16 304 216.47C304.75 217.77 305.08 219.25 304.94 220.7C304.51 227.92 295.46 236.56 283.88 240.84L207.85 268.83C201.26 271.22 195.19 271.85 190.58 270.76ZM254.05 189.38C243.9 186.96 226.25 194.29 219.77 204.43L186.47 256.42C183.8 260.58 183.6 264.24 185.91 266.74C189.43 270.59 197.95 270.89 207.14 267.51L283.17 239.52C295.81 234.86 302.98 226.28 303.32 220.56C303.45 219.37 303.18 218.15 302.56 217.08C301.94 216 301 215.11 299.85 214.54L257.05 190.52C256.11 190.01 255.1 189.63 254.05 189.38Z" fill="#FFFFFF" fill-opacity="1.000000" fill-rule="nonzero"/>
		<path id="Vector" d="M187.98 277.3C185.93 276.86 184.03 275.89 182.5 274.5C179.4 271.54 179.19 267.15 181.87 262.13L212.36 204.79C219.33 191.53 242.26 181.62 253.84 186.77L303.7 209C305.3 209.62 306.68 210.69 307.66 212.04C308.63 213.4 309.15 214.99 309.15 216.6C309.35 224.32 300.6 233.81 288.37 239.18L207.92 274.29C200.56 277.56 193.27 278.56 187.98 277.3ZM250.92 187.26C239.59 184.55 219.86 193.83 213.69 205.44L183.2 262.79C180.83 267.24 180.96 271.09 183.56 273.48C187.09 276.87 195.8 278.01 207.34 272.97L287.68 237.85C300.84 232.15 307.81 222.57 307.65 216.52C307.66 215.17 307.23 213.84 306.42 212.69C305.61 211.55 304.45 210.66 303.1 210.13L253.24 187.9C252.49 187.62 251.72 187.4 250.92 187.26Z" fill="#FFFFFF" fill-opacity="1.000000" fill-rule="nonzero"/>
		<path id="Vector" d="M185.95 284.45C184.02 284.03 182.22 283.17 180.71 281.94C177.25 279.05 176.6 274.53 178.89 269.13L205.74 206.33C211.91 191.9 235.85 179.7 249.14 184.29L306.52 204.1C308.37 204.61 310.02 205.64 311.25 207.05C312.47 208.46 313.22 210.18 313.37 211.97C314.24 220.06 305.72 230.6 293.12 237.03L208.88 280.01C200.44 284.39 192 285.9 185.95 284.45ZM247.27 185.26C234.59 182.23 212.73 193.81 207.11 206.95L180.27 269.74C178.23 274.56 178.75 278.45 181.68 280.92C185.89 284.46 195.7 285.19 208.13 278.85L292.37 235.88C305.97 228.94 312.57 218.47 311.89 212.12C311.76 210.6 311.12 209.14 310.07 207.94C309.03 206.74 307.62 205.86 306.05 205.43L248.67 185.61C248.21 185.47 247.74 185.36 247.27 185.27L247.27 185.26Z" fill="#FFFFFF" fill-opacity="1.000000" fill-rule="nonzero"/>
		<path id="Vector" d="M184.52 292.15C182.73 291.76 181.04 291.01 179.56 289.96C175.69 287.15 174.57 282.49 176.41 276.83L198.63 208.54C203.74 192.83 228.57 178.17 243.67 182.17L309.07 198.9C311.18 199.28 313.12 200.27 314.64 201.72C316.15 203.17 317.16 205.02 317.52 207C319.11 215.44 310.85 227.01 298.11 234.6L210.49 286.17C201.1 291.66 191.41 293.8 184.52 292.15ZM243.09 183.42C228.87 180.03 204.86 194.28 200.05 209.03L177.84 277.32C176.2 282.34 177.13 286.45 180.47 288.87C186.4 293.19 198.42 291.58 209.7 284.94L297.32 233.37C311.32 225.13 317.37 213.95 316.1 207.15C315.78 205.44 314.9 203.86 313.58 202.61C312.26 201.36 310.58 200.52 308.76 200.2L243.36 183.47L243.09 183.42Z" fill="#FFFFFF" fill-opacity="1.000000" fill-rule="nonzero"/>
		<path id="Vector" d="M183.79 300.38C182.18 300.01 180.65 299.38 179.25 298.52C174.92 295.8 173.27 291.06 174.58 285.15L191.08 211.41C194.87 194.44 220.44 177.24 237.46 180.21L311.31 193.1L311.15 193.77L311.31 193.1C316.79 194.05 320.39 197.04 321.58 201.4C323.95 210.3 316.5 222.7 303.31 231.52L212.99 292.38C202.66 299.35 191.64 302.25 183.79 300.38ZM312.16 194.7L311.08 194.44L237.24 181.55C221.19 178.74 196.12 195.66 192.53 211.72L176.03 285.46C174.75 290.83 176.2 294.94 180.03 297.34C187.05 301.72 200.22 299.21 212.09 291.22L302.42 230.48C316.53 220.98 322.01 208.85 320.13 201.8C319.68 200.04 318.68 198.42 317.27 197.15C315.85 195.89 314.08 195.04 312.18 194.7L312.16 194.7Z" fill="#FFFFFF" fill-opacity="1.000000" fill-rule="nonzero"/>
		<path id="Vector" d="M183.74 309.05C182.41 308.74 181.12 308.26 179.92 307.63C175.07 305.05 172.8 300.23 173.64 294.05L183.19 214.99C185.39 196.81 211.46 176.77 230.49 178.67L313.17 186.88C319.47 187.5 323.85 190.51 325.53 195.35C328.72 204.54 321.84 217.96 308.78 227.98L216.55 298.85C205.4 307.32 192.65 311.18 183.74 309.05ZM313.03 187.53L312.98 188.23L230.37 180.03C212.37 178.25 186.74 197.91 184.67 215.1L175.12 294.15C174.43 299.83 176.36 304.04 180.7 306.33C188.93 310.68 203.34 307.12 215.58 297.64L307.81 226.78C320.41 217.09 327.11 204.28 324.12 195.61C322.62 191.29 318.8 188.7 313.06 188.14L313.03 187.53Z" fill="#FFFFFF" fill-opacity="1.000000" fill-rule="nonzero"/>
		<path id="Vector" d="M184.79 318.25C183.74 318 182.72 317.66 181.74 317.24C176.29 314.86 173.36 309.93 173.44 303.5L174.75 219.29C175.05 199.91 201.36 176.87 222.48 177.48L314.35 180.1C321.56 180.31 326.88 183.36 329.07 188.64C333.13 198.12 327.01 212.55 314.19 223.78L221.02 305.36C209.25 315.67 194.97 320.68 184.79 318.25ZM314.35 180.8L314.36 181.49L222.49 178.86C202.47 178.29 176.54 200.99 176.26 219.35L174.95 303.56C174.86 309.53 177.42 313.82 182.35 315.93C191.93 320.11 207.41 315.32 220.01 304.29L313.18 222.71C325.56 211.85 331.53 198.03 327.72 189.04C325.67 184.24 321.04 181.6 314.32 181.39L314.35 180.8Z" fill="#FFFFFF" fill-opacity="1.000000" fill-rule="nonzero"/>
		<path id="Vector" d="M186.86 327.85C186.2 327.69 185.55 327.5 184.92 327.28C178.78 325.16 175.05 320.26 174.42 313.47L166.08 224.45C165.21 215.4 169.92 204.61 178.95 194.94C188.96 184.21 202.18 177.25 213.7 176.83L315 172.89L315.06 173.59L315 172.89C323.26 172.56 329.44 175.59 332.41 181.41C337.46 191.26 332.4 206.36 319.81 218.97L226.85 311.95C214.44 324.29 198.32 330.59 186.86 327.85ZM321.43 174.9C319.32 174.42 317.16 174.23 315.01 174.34L213.69 178.21C202.67 178.64 189.78 185.41 180.02 195.86C171.39 205.12 166.7 215.78 167.53 224.37L175.89 313.44C176.47 319.71 179.77 324.05 185.39 326.01C196.46 329.84 213.01 323.68 225.67 311L318.63 218.01C330.64 206.01 335.72 191.2 331 182.06C330.09 180.27 328.74 178.69 327.08 177.44C325.42 176.2 323.48 175.33 321.43 174.9Z" fill="#FFFFFF" fill-opacity="1.000000" fill-rule="nonzero"/>
		<path id="Vector" d="M190.13 337.81L189.72 337.71C186.37 336.87 183.33 335.11 181 332.67C178.67 330.22 177.16 327.19 176.67 323.99L157.08 230.56C155.17 221.4 158.76 210.09 166.94 199.53C176.75 186.86 190.86 178.15 203.79 176.8L314.7 165.21C324.06 164.23 331.34 167.2 335.14 173.63C341.2 183.7 337.21 199.73 325.22 213.52L233.9 318.45C221.19 333.1 203.29 340.95 190.13 337.81ZM314.86 165.9L314.96 166.6L204.05 178.19C191.51 179.49 177.79 187.99 168.21 200.36C160.27 210.62 156.77 221.54 158.6 230.32L178.19 323.75C179.57 330.34 183.7 334.7 190.13 336.38C202.8 339.63 220.31 331.91 232.8 317.57L324.19 212.57C335.81 199.22 339.75 183.8 333.98 174.24C330.48 168.41 323.75 165.71 315.03 166.62L314.86 165.9Z" fill="#FFFFFF" fill-opacity="1.000000" fill-rule="nonzero"/>
		<path id="Vector" d="M194.81 348.02C191.39 347.23 188.23 345.58 185.68 343.25C183.13 340.92 181.3 338 180.37 334.81L148.01 237.64C144.94 228.42 147.33 216.56 154.61 205.14C163.8 190.51 178.63 179.93 193.07 177.5L313.66 157.13L313.82 157.82L313.66 157.13C324.2 155.35 332.7 158.14 337.52 165.13C344.79 175.53 342.12 192.06 330.72 207.25L242.47 324.82C230.15 341.25 211.18 350.95 196.34 348.4L194.81 348.02ZM325.51 158.62C321.71 157.79 317.8 157.74 314.03 158.46L193.38 178.86C179.33 181.23 164.97 191.53 155.88 205.87C148.84 216.98 146.49 228.39 149.41 237.27L181.74 334.5C182.63 337.69 184.52 340.59 187.16 342.83C189.8 345.06 193.06 346.52 196.53 347.03C210.82 349.49 229.21 340.01 241.21 324.01L329.47 206.44C340.36 191.94 343.08 175.65 336.26 165.89C333.77 162.27 329.89 159.68 325.46 158.67L325.51 158.62Z" fill="#FFFFFF" fill-opacity="1.000000" fill-rule="nonzero"/>
		<path id="Vector" d="M200.98 358.54C197.58 357.75 194.4 356.19 191.74 354.02C189.07 351.84 186.98 349.1 185.66 346.04L138.82 245.74C134.48 236.46 135.6 224.05 141.88 211.72C150.17 195.45 165.65 182.58 181.34 178.94L311.56 148.62C323.19 145.91 333.28 148.62 339.25 156.04C347.72 166.57 346.44 183.91 336.02 200.26L252.63 330.93C241.13 348.96 221.55 360.64 205.1 359.21C203.71 359.09 202.34 358.87 200.98 358.54ZM311.67 149.33L311.87 150.02L181.65 180.34C166.36 183.9 151.18 196.46 143.14 212.4C137.04 224.38 135.94 236.35 140.09 245.27L186.93 345.57C188.41 349.01 190.92 352 194.15 354.18C197.37 356.36 201.18 357.62 205.09 357.81C221.04 359.14 240.02 347.78 251.27 330.18L334.65 199.56C344.76 183.71 346.07 166.92 337.98 156.91C332.32 149.86 323.12 147.43 311.87 150.02L311.67 149.33Z" fill="#FFFFFF" fill-opacity="1.000000" fill-rule="nonzero"/>
		<path id="Vector" d="M208.81 369.04C205.46 368.26 202.3 366.82 199.55 364.83C196.79 362.84 194.49 360.34 192.81 357.49L129.64 254.99C123.87 245.65 123.54 232.65 128.84 219.43C135.97 201.4 151.56 186.49 168.59 181.41L308.21 139.91L308.45 140.57L308.21 139.91C321.13 136.07 332.77 138.46 340.14 146.46C349.91 157.05 350.24 175.16 340.98 192.63L264.5 336.68C254.14 356.22 234.27 369.92 216.24 370C213.74 369.98 211.24 369.66 208.81 369.04ZM308.73 141.15L169.08 182.73C152.47 187.61 137.22 202.28 130.24 219.94C125.13 232.87 125.38 245.39 130.92 254.38L194.09 356.88C196.3 360.55 199.55 363.58 203.46 365.64C207.38 367.71 211.8 368.71 216.21 368.53C233.73 368.45 253.05 355.04 263.19 335.95L339.67 191.9C348.67 174.97 348.42 157.47 339.07 147.32C332.11 139.77 321.04 137.53 308.74 141.21L308.73 141.15Z" fill="#FFFFFF" fill-opacity="1.000000" fill-rule="nonzero"/>
		<path id="Vector" d="M218.37 379.67C211.79 378.11 205.96 374.38 201.97 369.18L120.62 265.55C113.24 256.17 111.41 242.56 115.57 228.2C121.26 208.55 136.69 191.58 154.87 184.96L303.57 130.87L303.86 131.52L303.57 130.87C317.79 125.71 331.13 127.63 340.17 136.19C351.54 146.94 353.6 165.27 345.59 184.05L278.24 341.77C269.2 362.97 249.85 378.49 230.09 380.38C226.19 380.8 222.23 380.56 218.37 379.67ZM326.32 130.31C318.82 128.76 311.07 129.42 304.14 132.19L155.43 186.28C137.65 192.73 122.59 209.35 116.99 228.64C112.94 242.59 114.69 255.75 121.79 264.78L203.16 368.42C209.37 376.34 218.88 380.11 229.89 379.06C249.12 377.22 267.99 362.03 276.93 341.29L344.26 183.57C352.05 165.32 350.11 147.57 339.19 137.23C335.65 133.84 331.19 131.43 326.33 130.29L326.32 130.31Z" fill="#FFFFFF" fill-opacity="1.000000" fill-rule="nonzero"/>
		<path id="Vector" d="M229.82 389.97C223.52 388.5 217.77 385.27 213.35 380.74L111.84 277.25C102.66 267.86 99.02 253.53 101.99 238.01C106.03 216.92 121.04 197.98 140.13 189.68L297.34 121.69C312.84 114.99 328.02 116.32 339.01 125.36C351.95 136.02 356.01 154.93 349.58 174.73L293.9 346.21C286.67 368.59 267.74 386.28 246.87 390.26C241.28 391.38 235.45 391.28 229.82 389.97ZM297.68 122.23L298.01 122.86L140.86 190.95C122.13 199.05 107.47 217.64 103.52 238.3C100.63 253.39 104.08 267.26 112.99 276.33L214.5 379.83C222.59 388.09 233.98 391.3 246.57 388.9C266.96 384.92 285.41 367.67 292.52 345.78L348.2 174.29C354.46 155.03 350.58 136.68 338.1 126.4C327.59 117.75 312.99 116.5 298.06 122.96L297.68 122.23Z" fill="#FFFFFF" fill-opacity="1.000000" fill-rule="nonzero"/>
		<path id="Vector" d="M243.38 400.13C237.46 398.7 231.95 395.95 227.34 392.1L103.7 290.24C92.32 280.86 86.7 265.81 88.39 248.96C90.57 226.65 104.8 205.77 124.64 195.72L289.53 112.47C306.23 104.08 323.4 104.64 336.72 113.99C351.35 124.43 357.68 143.86 353.05 164.64L311.68 349.73C306.41 373.39 288.82 392.8 266.88 399.16C259.37 401.52 251.23 401.86 243.38 400.13ZM289.91 113.04L290.28 113.65L125.35 197.04C105.9 206.85 91.99 227.33 89.86 249.2C88.25 265.62 93.66 280.17 104.65 289.29L228.29 391.15C238.64 399.68 252.16 402.15 266.4 397.95C287.86 391.68 305.08 372.67 310.28 349.49L351.57 164.31C356.09 144.06 350.04 125.2 335.83 115.09C323.11 106.04 306.51 105.54 290.34 113.72L289.91 113.04Z" fill="#FFFFFF" fill-opacity="1.000000" fill-rule="nonzero"/>
		<path id="Vector" d="M258.85 409.58C253.52 408.31 248.45 406.1 243.93 403.08L96.22 304.57C82.34 295.31 74.45 279.46 74.61 261.09C74.68 249.45 77.79 238.11 83.65 228.03C89.51 217.96 97.96 209.46 108.25 203.27L279.88 103.22C297.44 92.98 317.2 92.5 332.74 101.94C349.67 112.22 358.19 131.53 355.55 153.59L331.64 352.17C328.72 376.51 312.45 398 290.21 406.89C280.48 411 269.46 411.95 258.85 409.58ZM280.33 103.82L280.74 104.41L109.01 204.46C98.92 210.53 90.65 218.86 84.9 228.73C79.15 238.6 76.1 249.72 76.02 261.12C75.87 279.02 83.51 294.44 96.97 303.42L244.68 401.94C257.53 410.51 273.87 411.84 289.47 405.56C311.25 396.84 327.18 375.78 330.05 351.93L354.04 153.39C356.61 131.86 348.41 113.14 331.93 103.09C316.98 93.98 297.74 94.45 280.67 104.39L280.33 103.82Z" fill="#FFFFFF" fill-opacity="1.000000" fill-rule="nonzero"/>
		<path id="Vector" d="M276.56 418.44C271.99 417.35 267.59 415.67 263.47 413.46L89.55 320.21C72.68 311.2 62.21 294.53 60.65 274.41C59.72 262.34 62.01 250.35 67.32 239.51C72.62 228.68 80.78 219.35 91.04 212.37L268.12 94.15C286.57 81.83 308.55 80.05 326.9 89.39C346.1 99.17 357.36 118.74 357.01 141.77L353.87 353.21C353.57 378.43 339.36 401.27 316.97 412.9C303.87 419.75 289.72 421.58 276.56 418.44ZM268.57 94.71L269.03 95.28L91.95 213.51C81.89 220.35 73.89 229.5 68.69 240.12C63.48 250.75 61.23 262.51 62.15 274.34C63.68 293.93 73.94 310.21 90.27 318.95L264.16 412.31C280.11 420.86 299.07 420.65 316.18 411.79C338.12 400.41 352 377.91 352.36 353.24L355.51 141.75C355.85 119.27 344.89 100.17 326.22 90.65C308.39 81.57 287 83.32 269 95.33L268.57 94.71Z" fill="#FFFFFF" fill-opacity="1.000000" fill-rule="nonzero"/>
		<path id="Vector" d="M296.41 426.36C292.9 425.52 289.46 424.38 286.13 422.97L84.03 337.21C63.88 328.65 50.3 311.16 46.65 289.17C44.67 276.8 46.06 264.26 50.71 252.73C55.35 241.21 63.09 231.09 73.2 223.32L254.12 85.52L254.6 86.06L254.12 85.52C273.24 70.97 297.44 67.57 318.86 76.52C340.63 85.57 354.97 105.3 357.23 129.27L378.35 352.81C379.54 365.32 377.29 377.8 371.81 389.05C366.33 400.3 357.81 409.95 347.07 417.06C331.54 427.25 313.55 430.45 296.41 426.36ZM308.85 74.64C290.51 70.26 271.04 74.46 255.15 86.58L74.19 224.42C64.29 232.04 56.71 241.95 52.16 253.24C47.61 264.53 46.24 276.81 48.18 288.94C51.7 310.41 64.98 327.53 84.66 335.88L286.76 421.63C306.29 429.84 327.96 427.81 346.29 415.85C356.83 408.87 365.18 399.41 370.55 388.37C375.92 377.34 378.12 365.1 376.96 352.83L355.78 129.35C353.59 105.84 339.57 86.58 318.33 77.79C315.26 76.49 312.09 75.44 308.85 74.64Z" fill="#FFFFFF" fill-opacity="1.000000" fill-rule="nonzero"/>
		<path id="Vector" d="M317.99 433.02C316.04 432.55 314.09 432 312.15 431.37L80.04 355.6C56.35 347.88 38.69 329.09 32.8 305.42C29.63 292.87 30.02 279.87 33.91 267.72C37.81 255.57 45.08 244.7 54.99 236.21L237.9 77.45L238.42 77.97L237.9 77.45C257.34 60.58 283.7 55.31 308.39 63.36C333.08 71.41 350.93 91.2 356.19 116.06L405.41 350.61C408.12 363.23 407.28 376.19 402.95 388.19C398.62 400.19 390.97 410.81 380.75 418.98C372.42 425.9 362.38 430.79 351.45 433.23C340.53 435.67 329.06 435.6 317.99 433.02ZM302 62.98C279.56 57.62 256.3 63.21 238.79 78.43L55.95 237.2C46.24 245.54 39.12 256.21 35.31 268.13C31.5 280.05 31.14 292.8 34.26 305.11C40.01 328.32 57.3 346.7 80.48 354.27L312.6 430.05C335.78 437.62 360.85 433.06 379.67 417.86C389.7 409.84 397.21 399.42 401.46 387.64C405.71 375.86 406.54 363.14 403.87 350.75L354.65 116.21C349.53 91.78 332.03 72.49 307.87 64.6C305.95 63.99 303.99 63.46 302 62.98Z" fill="#FFFFFF" fill-opacity="1.000000" fill-rule="nonzero"/>
		<path id="Vector" d="M341.72 438.32L77.71 375.29C64.08 372.04 51.5 365.51 41.21 356.36C30.92 347.22 23.29 335.77 19.1 323.18C14.9 310.59 14.27 297.29 17.29 284.63C20.31 271.97 26.86 260.38 36.28 251.05L218.92 70C228.3 60.62 240.26 53.82 253.57 50.31C266.88 46.8 281.07 46.71 294.68 50.04C308.33 53.22 320.96 59.72 331.26 68.88C341.56 78.04 349.16 89.53 353.28 102.16L434.65 346.23C438.85 358.83 439.47 372.12 436.46 384.78C433.44 397.45 426.89 409.03 417.47 418.37C408.05 427.71 396.09 434.48 382.78 437.99C369.48 441.5 355.3 441.64 341.68 438.39L341.72 438.32ZM219.47 70.51L220.02 70.99L37.37 252.07C28.13 261.23 21.7 272.6 18.74 285.02C15.79 297.45 16.4 310.49 20.52 322.85C24.64 335.2 32.12 346.43 42.21 355.41C52.3 364.38 64.65 370.79 78.02 373.98L342.03 437.02C355.39 440.2 369.3 440.07 382.35 436.61C395.4 433.16 407.13 426.52 416.38 417.36C425.62 408.19 432.04 396.83 435 384.41C437.96 371.98 437.35 358.94 433.23 346.59L351.87 102.47C347.75 90.12 340.27 78.89 330.17 69.91C320.08 60.94 307.73 54.53 294.37 51.34C281 48.15 267.09 48.29 254.04 51.73C240.99 55.18 229.25 61.82 220 70.99L219.47 70.51Z" fill="#FFFFFF" fill-opacity="1.000000" fill-rule="nonzero"/>
	</g>
</svg>
