<svg width="139" height="191" viewBox="0 0 139 191" fill="none" xmlns="http://www.w3.org/2000/svg">
<path d="M101 128V120H43V128H101Z" fill="white"/>
<circle cx="71.5" cy="77.5" r="49.5" fill="white"/>
<path d="M66 190V174.5H78.5V190H66Z" fill="white"/>
<path d="M100.535 159.275H42.9595C42.543 159.275 42.1435 159.11 41.849 158.816C41.5545 158.521 41.389 158.122 41.389 157.706V119.897C32.4004 113.47 25.6861 104.356 22.2138 93.8701C18.7415 83.3842 18.6906 72.0674 22.0683 61.5506C25.446 51.0338 32.0779 41.8603 41.0083 35.352C49.9387 28.8438 60.7063 25.3369 71.7593 25.3369C82.8123 25.3369 93.5799 28.8438 102.51 35.352C111.441 41.8603 118.073 51.0338 121.45 61.5506C124.828 72.0674 124.777 83.3842 121.305 93.8701C117.832 104.356 111.118 113.47 102.129 119.897V157.706C102.129 157.914 102.088 158.12 102.008 158.312C101.927 158.504 101.809 158.678 101.661 158.824C101.513 158.971 101.337 159.086 101.143 159.163C100.95 159.24 100.743 159.279 100.535 159.275ZM44.5058 156.137H98.9644V119.076C98.9661 118.824 99.0285 118.577 99.1462 118.354C99.264 118.131 99.4336 117.94 99.6409 117.797C108.238 111.853 114.71 103.319 118.112 93.4411C121.514 83.5629 121.669 72.8569 118.553 62.8848C115.437 52.9127 109.214 44.1963 100.792 38.0072C92.3702 31.818 82.1894 28.48 71.7351 28.48C61.2808 28.48 51.1 31.818 42.6779 38.0072C34.2557 44.1963 28.033 52.9127 24.9173 62.8848C21.8017 72.8569 21.9562 83.5629 25.3583 93.4411C28.7604 103.319 35.2321 111.853 43.8293 117.797C44.0365 117.94 44.2062 118.131 44.324 118.354C44.4417 118.577 44.5041 118.824 44.5058 119.076V156.137Z" fill="#0C999C"/>
<path d="M68.6906 20.2807C68.274 20.2807 67.8746 20.1152 67.5801 19.8209C67.2855 19.5266 67.1201 19.1275 67.1201 18.7113V1.56939C67.1201 1.15318 67.2855 0.753927 67.5801 0.459619C67.8746 0.165311 68.274 0 68.6906 0C69.1071 0 69.5065 0.165311 69.8011 0.459619C70.0956 0.753927 70.261 1.15318 70.261 1.56939V18.7113C70.261 19.1275 70.0956 19.5266 69.8011 19.8209C69.5065 20.1152 69.1071 20.2807 68.6906 20.2807Z" fill="#0C999C"/>
<path d="M89.203 22.3326H88.7922C88.5919 22.2794 88.4041 22.1872 88.2397 22.0612C88.0752 21.9351 87.9373 21.7777 87.834 21.5981C87.7307 21.4186 87.664 21.2203 87.6377 21.0149C87.6114 20.8094 87.6261 20.6009 87.6809 20.4011L92.1264 3.86265C92.1804 3.66291 92.2731 3.47573 92.3995 3.31182C92.5258 3.1479 92.6832 3.01044 92.8627 2.90731C93.0422 2.80418 93.2403 2.73752 93.4456 2.71088C93.6509 2.68424 93.8594 2.69824 94.0593 2.75214C94.2592 2.80604 94.4465 2.89867 94.6105 3.0249C94.7746 3.15114 94.9121 3.30841 95.0153 3.48777C95.1185 3.66712 95.1854 3.86511 95.212 4.07028C95.2387 4.27545 95.2246 4.48385 95.1707 4.6836L90.7251 21.2219C90.6258 21.5467 90.4237 21.8305 90.1493 22.0308C89.8748 22.2311 89.5428 22.337 89.203 22.3326Z" fill="#0C999C"/>
<path d="M108.556 29.4553C108.272 29.4607 107.991 29.389 107.745 29.2477C107.498 29.1064 107.295 28.9009 107.156 28.6531C107.017 28.4053 106.948 28.1244 106.956 27.8405C106.965 27.5566 107.05 27.2803 107.203 27.041L115.756 12.1926C115.859 12.0134 115.996 11.8564 116.16 11.7303C116.324 11.6042 116.511 11.5116 116.711 11.4578C116.911 11.404 117.119 11.3901 117.324 11.4167C117.529 11.4434 117.727 11.5101 117.906 11.6131C118.085 11.7162 118.243 11.8535 118.369 12.0172C118.495 12.181 118.588 12.3681 118.641 12.5676C118.695 12.7671 118.709 12.9752 118.683 13.1802C118.656 13.3851 118.589 13.5828 118.486 13.762L109.933 28.6102C109.802 28.8626 109.604 29.0745 109.362 29.2234C109.119 29.3722 108.841 29.4524 108.556 29.4553Z" fill="#0C999C"/>
<path d="M125.348 41.4064C125.037 41.4067 124.733 41.3149 124.474 41.1424C124.216 40.97 124.014 40.7247 123.895 40.4378C123.776 40.1508 123.745 39.835 123.806 39.5303C123.867 39.2256 124.017 38.9458 124.237 38.7263L136.317 26.6545C136.463 26.5086 136.636 26.393 136.827 26.3141C137.018 26.2352 137.222 26.1946 137.428 26.1946C137.635 26.1946 137.839 26.2352 138.03 26.3141C138.221 26.393 138.394 26.5086 138.54 26.6545C138.686 26.8003 138.801 26.9735 138.88 27.1641C138.959 27.3546 139 27.5589 139 27.7652C139 27.9714 138.959 28.1757 138.88 28.3662C138.801 28.5568 138.686 28.73 138.54 28.8758L126.459 40.9476C126.313 41.0933 126.14 41.2087 125.949 41.2874C125.759 41.3662 125.554 41.4066 125.348 41.4064Z" fill="#0C999C"/>
<path d="M13.6522 45.39C13.4459 45.3902 13.2415 45.3499 13.0508 45.2712C12.8601 45.1925 12.6868 45.0769 12.5408 44.9313L0.460371 32.8595C0.31442 32.7136 0.198639 32.5404 0.11965 32.3499C0.0406622 32.1593 3.64245e-08 31.9552 0 31.7489C-3.64245e-08 31.5427 0.0406622 31.3384 0.11965 31.1479C0.198639 30.9573 0.31442 30.7841 0.460371 30.6383C0.606322 30.4924 0.779578 30.3768 0.970273 30.2979C1.16097 30.2189 1.36536 30.1782 1.57177 30.1782C1.77818 30.1782 1.98255 30.2189 2.17325 30.2979C2.36394 30.3768 2.53722 30.4924 2.68317 30.6383L14.7636 42.7101C14.9836 42.9296 15.1335 43.2094 15.1942 43.5141C15.255 43.8188 15.2239 44.1346 15.1049 44.4216C14.9858 44.7085 14.7843 44.9537 14.5257 45.1261C14.2671 45.2985 13.9631 45.3904 13.6522 45.39Z" fill="#0C999C"/>
<path d="M29.55 32.2559C29.2743 32.2534 29.0042 32.1785 28.7667 32.0387C28.5292 31.8988 28.3327 31.699 28.197 31.4592L19.6199 16.635C19.4116 16.2732 19.3557 15.8436 19.4645 15.4407C19.5732 15.0377 19.8377 14.6943 20.1998 14.4862C20.5618 14.2781 20.9917 14.2222 21.395 14.3309C21.7983 14.4396 22.1418 14.7038 22.3501 15.0656L30.9272 29.8899C31.0803 30.1292 31.1655 30.4055 31.1738 30.6894C31.1821 30.9733 31.1131 31.2542 30.9742 31.502C30.8354 31.7498 30.6318 31.9553 30.3852 32.0966C30.1387 32.2379 29.8583 32.3096 29.5742 32.3042L29.55 32.2559Z" fill="#0C999C"/>
<path d="M48.3474 23.7091C48.0013 23.7105 47.6645 23.5975 47.3893 23.388C47.114 23.1784 46.9157 22.884 46.8252 22.5502L42.3796 6.01174C42.2707 5.60833 42.3266 5.17827 42.535 4.81605C42.7435 4.45383 43.0873 4.18913 43.491 4.08028C43.8947 3.97142 44.3252 4.02732 44.6876 4.2356C45.0501 4.44387 45.315 4.78753 45.4239 5.19094L49.8695 21.7293C49.9243 21.929 49.9389 22.1376 49.9127 22.343C49.8864 22.5485 49.8197 22.7467 49.7163 22.9263C49.613 23.1058 49.4752 23.2632 49.3107 23.3893C49.1462 23.5153 48.9584 23.6075 48.7581 23.6607L48.3474 23.7091Z" fill="#0C999C"/>
<path d="M38.7071 103.648C38.4338 103.648 38.1652 103.577 37.928 103.442C37.6907 103.306 37.4929 103.111 37.3541 102.876L34.479 98.0472C34.2937 97.7219 34.2309 97.3414 34.3018 96.9739C34.3727 96.6065 34.5726 96.2764 34.8655 96.0433L42.7903 89.6936C42.3362 88.3595 41.973 86.9963 41.7031 85.6133L31.8213 84.1164C31.452 84.0589 31.1154 83.8718 30.8718 83.5885C30.6282 83.3053 30.4937 82.9446 30.4924 82.5712V76.8733C30.4937 76.4999 30.6282 76.1391 30.8718 75.8559C31.1154 75.5727 31.452 75.3855 31.8213 75.3281L41.7031 73.8553C41.972 72.4721 42.3352 71.1088 42.7903 69.7751L34.9622 63.546C34.6692 63.3129 34.4693 62.9828 34.3984 62.6154C34.3275 62.2479 34.3904 61.8672 34.5756 61.542L37.4508 56.5926C37.6387 56.2675 37.9371 56.0205 38.2918 55.8964C38.6464 55.7724 39.0338 55.7795 39.3836 55.9165L48.6856 59.5864C49.6141 58.5283 50.6151 57.536 51.6815 56.6167L48.0091 47.3214C47.872 46.9718 47.8648 46.5847 47.9889 46.2303C48.1131 45.8759 48.3602 45.5777 48.6856 45.3899L53.5177 42.541C53.8432 42.3559 54.2241 42.293 54.5918 42.3638C54.9595 42.4347 55.2898 42.6346 55.5231 42.9274L61.7566 50.7257C63.0821 50.2677 64.4385 49.9046 65.8156 49.6392L67.2894 39.7644C67.3469 39.3954 67.5342 39.0591 67.8176 38.8157C68.101 38.5723 68.462 38.4378 68.8357 38.4365H74.5618C74.9355 38.4378 75.2965 38.5723 75.5799 38.8157C75.8634 39.0591 76.0506 39.3954 76.1081 39.7644L77.6061 49.6392C78.9911 49.9049 80.3555 50.268 81.6893 50.7257L87.8986 42.9274C88.1319 42.6346 88.4622 42.4347 88.8299 42.3638C89.1976 42.293 89.5786 42.3559 89.904 42.541L94.857 45.3899C95.1823 45.5777 95.4295 45.8759 95.5536 46.2303C95.6777 46.5847 95.6706 46.9718 95.5335 47.3214L91.861 56.6167C92.9268 57.5366 93.9278 58.5288 94.857 59.5864L104.183 55.9165C104.533 55.7795 104.92 55.7724 105.275 55.8964C105.63 56.0205 105.928 56.2675 106.116 56.5926L108.967 61.542C109.152 61.8672 109.215 62.2479 109.144 62.6154C109.073 62.9828 108.873 63.3129 108.58 63.546L100.776 69.7509C101.237 71.0829 101.6 72.4466 101.864 73.8312L111.745 75.3039C112.115 75.3613 112.451 75.5485 112.695 75.8317C112.938 76.115 113.073 76.4757 113.074 76.8491V82.547C113.073 82.9204 112.938 83.2811 112.695 83.5644C112.451 83.8476 112.115 84.0348 111.745 84.0922L101.864 85.5649C101.599 86.9492 101.236 88.3128 100.776 89.6452L108.605 95.8743C108.897 96.1074 109.097 96.4375 109.168 96.8049C109.239 97.1723 109.176 97.5529 108.991 97.8781L106.14 102.707C105.952 103.032 105.654 103.279 105.299 103.403C104.944 103.527 104.557 103.52 104.207 103.383L93.8422 99.3027C93.6503 99.2266 93.4752 99.1135 93.327 98.9698C93.1788 98.8261 93.0603 98.6545 92.9785 98.4651C92.8966 98.2756 92.8528 98.0719 92.8497 97.8656C92.8466 97.6593 92.8842 97.4543 92.9604 97.2625C93.0365 97.0706 93.1497 96.8957 93.2935 96.7476C93.4373 96.5995 93.6089 96.4812 93.7985 96.3994C93.9881 96.3175 94.192 96.2738 94.3984 96.2707C94.6049 96.2676 94.81 96.3051 95.002 96.3812L104.111 99.9546L105.609 97.347L97.9737 91.2628C97.7141 91.0546 97.5274 90.7695 97.4405 90.4483C97.3537 90.1272 97.3712 89.7867 97.4905 89.4762C98.1963 87.6538 98.6987 85.7591 98.9885 83.8265C99.0371 83.4916 99.1927 83.1814 99.4322 82.9421C99.6717 82.7028 99.9822 82.5472 100.317 82.4986L109.982 81.0501V78.0563L100.317 76.6076C99.9822 76.559 99.6717 76.4035 99.4322 76.1642C99.1927 75.9249 99.0371 75.6147 98.9885 75.2797C98.7032 73.3463 98.2007 71.4512 97.4905 69.6302C97.3712 69.3197 97.3537 68.9792 97.4405 68.6581C97.5274 68.3369 97.7141 68.0516 97.9737 67.8434L105.609 61.9284L104.111 59.3208L95.002 62.894C94.6881 63.019 94.3423 63.0395 94.0159 62.9525C93.6894 62.8655 93.3998 62.6757 93.1899 62.4111C91.9569 60.8899 90.5636 59.5059 89.0342 58.2827C88.7746 58.0745 88.5879 57.7892 88.501 57.4681C88.4142 57.1469 88.4317 56.8066 88.551 56.4961L92.1268 47.3939L89.5174 45.897L83.4531 53.5263C83.2432 53.7908 82.9535 53.9807 82.6271 54.0677C82.3006 54.1547 81.9548 54.1342 81.641 54.0092C79.8177 53.2973 77.9218 52.7873 75.9874 52.4881C75.6566 52.4348 75.3515 52.2772 75.1168 52.0382C74.8821 51.7993 74.7299 51.4917 74.6826 51.1603L73.233 41.5028H70.2129L68.7632 51.1603C68.716 51.4917 68.5638 51.7993 68.3291 52.0382C68.0944 52.2772 67.7894 52.4348 67.4586 52.4881C65.5311 52.7836 63.6429 53.2938 61.8291 54.0092C61.5152 54.1342 61.1694 54.1547 60.843 54.0677C60.5165 53.9807 60.2269 53.7908 60.017 53.5263L53.9285 45.8728L51.3191 47.3697L54.8949 56.4719C55.0142 56.7824 55.0318 57.1228 54.9449 57.4439C54.8581 57.765 54.6713 58.0503 54.4117 58.2585C52.8898 59.4821 51.5046 60.8663 50.2802 62.3871C50.0703 62.6517 49.7806 62.8415 49.4542 62.9285C49.1278 63.0155 48.782 62.9949 48.4681 62.8699L39.3595 59.2967L37.9581 61.9284L45.593 68.0125C45.8526 68.2207 46.0393 68.506 46.1262 68.8271C46.213 69.1482 46.1955 69.4885 46.0762 69.7991C45.3763 71.6317 44.8742 73.5338 44.5782 75.4729C44.5249 75.8035 44.3671 76.1082 44.128 76.3428C43.889 76.5774 43.5811 76.7294 43.2494 76.7766L33.585 78.2253V81.2191L43.2494 82.6677C43.5811 82.7149 43.889 82.8669 44.128 83.1015C44.3671 83.3361 44.5249 83.641 44.5782 83.9715C44.8777 85.9099 45.3798 87.8115 46.0762 89.6452C46.1955 89.9558 46.213 90.2961 46.1262 90.6172C46.0393 90.9383 45.8526 91.2236 45.593 91.4318L37.9581 97.5161L39.4803 100.123L48.5889 96.5503C48.9766 96.3966 49.4095 96.4031 49.7923 96.5684C50.1752 96.7337 50.4767 97.0441 50.6305 97.4315C50.7843 97.8189 50.7778 98.2515 50.6124 98.6341C50.447 99.0167 50.1363 99.318 49.7486 99.4717L39.3836 103.552C39.1681 103.634 38.937 103.667 38.7071 103.648Z" fill="#0C999C"/>
<path d="M108.025 129.723H35.5419C35.1254 129.723 34.7259 129.558 34.4314 129.264C34.1369 128.97 33.9714 128.57 33.9714 128.154C33.9714 127.738 34.1369 127.339 34.4314 127.044C34.7259 126.75 35.1254 126.585 35.5419 126.585H108.025C108.441 126.585 108.84 126.75 109.135 127.044C109.43 127.339 109.595 127.738 109.595 128.154C109.595 128.57 109.43 128.97 109.135 129.264C108.84 129.558 108.441 129.723 108.025 129.723Z" fill="#0C999C"/>
<path d="M108.025 140.299H35.5419C35.1254 140.299 34.7259 140.133 34.4314 139.839C34.1369 139.545 33.9714 139.146 33.9714 138.73C33.9714 138.313 34.1369 137.914 34.4314 137.62C34.7259 137.325 35.1254 137.16 35.5419 137.16H108.025C108.441 137.16 108.84 137.325 109.135 137.62C109.43 137.914 109.595 138.313 109.595 138.73C109.595 139.146 109.43 139.545 109.135 139.839C108.84 140.133 108.441 140.299 108.025 140.299Z" fill="#0C999C"/>
<path d="M108.025 149.956H35.5419C35.1254 149.956 34.7259 149.791 34.4314 149.497C34.1369 149.202 33.9714 148.803 33.9714 148.387C33.9714 147.971 34.1369 147.571 34.4314 147.277C34.7259 146.983 35.1254 146.818 35.5419 146.818H108.025C108.441 146.818 108.84 146.983 109.135 147.277C109.43 147.571 109.595 147.971 109.595 148.387C109.595 148.803 109.43 149.202 109.135 149.497C108.84 149.791 108.441 149.956 108.025 149.956Z" fill="#0C999C"/>
<path d="M90.5078 176.273H52.986C52.5695 176.273 52.17 176.107 51.8755 175.813C51.581 175.519 51.4155 175.119 51.4155 174.703V157.803C51.4155 157.386 51.581 156.987 51.8755 156.693C52.17 156.399 52.5695 156.233 52.986 156.233H90.5078C90.9243 156.233 91.3238 156.399 91.6183 156.693C91.9128 156.987 92.0782 157.386 92.0782 157.803V174.703C92.0782 175.119 91.9128 175.519 91.6183 175.813C91.3238 176.107 90.9243 176.273 90.5078 176.273ZM54.5564 173.134H88.9374V159.275H54.5564V173.134Z" fill="#0C999C"/>
<path d="M77.7751 191H65.6947C65.2782 191 64.8788 190.835 64.5843 190.54C64.2897 190.246 64.1243 189.847 64.1243 189.431V174.703C64.1243 174.287 64.2897 173.888 64.5843 173.593C64.8788 173.299 65.2782 173.134 65.6947 173.134H77.7751C78.1917 173.134 78.5911 173.299 78.8856 173.593C79.1802 173.888 79.3456 174.287 79.3456 174.703V189.431C79.3456 189.847 79.1802 190.246 78.8856 190.54C78.5911 190.835 78.1917 191 77.7751 191ZM67.2893 187.861H76.2047V176.272H67.2893V187.861Z" fill="#0C999C"/>
</svg>
