<svg width="33" height="30" viewBox="0 0 33 30" fill="none" xmlns="http://www.w3.org/2000/svg">
<path fill-rule="evenodd" clip-rule="evenodd" d="M15.8563 0.0332553C14.8169 0.198345 14.0444 0.599396 13.2779 1.37201L12.73 1.92427L6.80084 12.4122C3.53976 18.1805 0.717658 23.2023 0.529432 23.5717C0.155817 24.3048 0.00181968 24.8828 1.47721e-05 25.5588C-0.00527102 27.5581 1.40849 29.35 3.41535 29.8877C3.80817 29.993 4.6256 30 16.5009 30C28.3762 30 29.1937 29.993 29.5865 29.8877C30.9986 29.5094 32.1672 28.4822 32.6974 27.1536C33.134 26.0592 33.0968 24.844 32.5946 23.7974C32.3353 23.2572 20.5734 2.44788 20.2568 1.96936C20.1351 1.78541 19.8161 1.43156 19.548 1.18313C19.0168 0.690799 18.3185 0.309769 17.629 0.135917C17.1279 0.00952485 16.3053 -0.0380639 15.8563 0.0332553ZM17.3273 2.96892C17.4805 3.04677 17.7061 3.21684 17.8287 3.34682C18.0186 3.54805 29.7613 24.2029 30.1087 24.9469C30.3902 25.5495 30.184 26.3982 29.645 26.856C29.1061 27.3137 30.0991 27.2816 16.5009 27.2816C2.90269 27.2816 3.89571 27.3137 3.35682 26.856C2.84725 26.4232 2.61958 25.5878 2.85783 25.0248C2.96554 24.7702 14.779 3.86543 14.9988 3.54024C15.1794 3.27326 15.5417 3.005 15.9013 2.87202C16.2549 2.74128 16.976 2.79021 17.3273 2.96892ZM16.1782 8.21296C15.7048 8.36545 15.4102 8.61536 15.247 9.00285C15.1602 9.20894 15.1472 9.8148 15.1472 13.6579C15.1472 17.8797 15.1527 18.0864 15.2702 18.3132C15.8103 19.3551 17.2427 19.3443 17.7324 18.2947C17.8449 18.0536 17.8518 17.7852 17.8532 13.6393C17.8547 8.88618 17.8614 8.98539 17.5131 8.61485C17.2068 8.28908 16.553 8.0922 16.1782 8.21296ZM15.8563 21.9886C15.6968 22.0731 15.4792 22.2649 15.3729 22.4148C15.1982 22.6608 15.1795 22.7353 15.1795 23.1829C15.1795 23.6192 15.2005 23.7086 15.3557 23.9289C15.4526 24.0666 15.639 24.2513 15.77 24.3392C15.9725 24.4753 16.0816 24.4991 16.5009 24.4991C16.9202 24.4991 17.0294 24.4753 17.2318 24.3392C17.3628 24.2513 17.5492 24.0666 17.6461 23.9289C17.8009 23.7091 17.8224 23.6188 17.8224 23.1879C17.8224 22.757 17.8009 22.6667 17.6461 22.4469C17.3642 22.0463 17.0677 21.8835 16.5724 21.8573C16.2184 21.8386 16.0974 21.8608 15.8563 21.9886Z" fill="white"/>
</svg>
