<svg width="594.904297" height="562.083496" viewBox="0 0 594.904 562.083" fill="none" xmlns="http://www.w3.org/2000/svg" xmlns:xlink="http://www.w3.org/1999/xlink">
	<desc>
			Created with Pixso.
	</desc>
	<defs/>
	<g opacity="0.500000">
		<path id="Vector" d="M228.32 329.37C225.6 328.94 223.12 327.55 221.32 325.47C218.47 321.82 219.04 316.5 222.87 310.9L264.17 250.16C269.83 241.83 281.56 234.62 292.72 232.57C299.06 231.41 304.46 232.11 307.9 234.55L350.92 264.76C352.33 265.7 353.43 267.04 354.1 268.6C354.76 270.16 354.95 271.89 354.65 273.56C353.49 282.23 342.85 292.25 329.88 296.95L245.59 327.36C240.12 329.59 234.15 330.28 228.32 329.37ZM302.61 234.1C299.44 233.53 296.19 233.59 293.05 234.26C282.32 236.23 271.05 243.17 265.63 251.12L224.33 311.86C221.01 316.88 220.35 321.31 222.74 324.37C226.22 328.87 235.02 329.43 245 325.78L329.32 295.24C343.44 290.12 352.04 280.07 352.95 273.28C353.21 271.94 353.08 270.55 352.56 269.29C352.04 268.03 351.16 266.94 350.03 266.18L307.02 235.96C305.69 235.05 304.19 234.41 302.61 234.1Z" fill="#0C999C" fill-opacity="1.000000" fill-rule="nonzero"/>
		<path id="Vector" d="M224.91 337.13C222.31 336.65 219.93 335.36 218.12 333.43C214.88 329.77 215.02 324.4 218.54 318.33L257.6 251.13C266.61 235.58 292.32 224.62 304.03 231.21L354.78 259.57C356.43 260.41 357.79 261.72 358.68 263.34C359.58 264.96 359.98 266.8 359.82 268.65C359.36 277.78 348.7 289.12 335.04 295.05L245.32 333.9C237.53 337.22 230.36 338.31 224.91 337.13ZM299.46 231.43C287.44 228.84 266.62 238.91 259.02 252.02L219.95 319.21C216.83 324.59 216.61 329.22 219.36 332.27C223.54 336.97 233.62 336.96 244.47 332.27L334.19 293.41C349.1 286.95 357.54 275.79 357.9 268.54C358.04 267.03 357.72 265.51 356.99 264.18C356.25 262.85 355.12 261.77 353.76 261.09L303.01 232.73C301.9 232.13 300.7 231.69 299.46 231.43Z" fill="#0C999C" fill-opacity="1.000000" fill-rule="nonzero"/>
		<path id="Vector" d="M221.87 345.51C219.44 345.05 217.19 343.92 215.38 342.23C211.7 338.63 211.42 333.1 214.56 326.64L250.26 252.8C258.42 235.73 285.48 222.16 299.19 228.14L358.28 253.92C360.18 254.64 361.82 255.91 362.98 257.58C364.14 259.25 364.77 261.24 364.77 263.27C365.05 273.01 354.77 285.4 340.33 292.75L245.43 340.8C236.75 345.26 228.13 346.86 221.87 345.51ZM295.75 228.89C282.33 225.99 259.06 238.62 251.84 253.57L216.13 327.4C213.35 333.14 213.53 337.99 216.62 340.89C220.82 345.01 231.12 346.05 244.74 339.16L339.51 291.1C355.04 283.3 363.22 270.88 363 263.24C363 261.54 362.49 259.87 361.52 258.46C360.55 257.06 359.18 255.98 357.58 255.38L298.5 229.59C297.61 229.27 296.69 229.03 295.75 228.89Z" fill="#0C999C" fill-opacity="1.000000" fill-rule="nonzero"/>
		<path id="Vector" d="M219.52 354.64C217.23 354.19 215.1 353.19 213.3 351.71C209.2 348.21 208.4 342.53 211.08 335.61L242.44 255.06C249.66 236.54 277.89 220.04 293.63 225.22L361.58 247.61C363.77 248.17 365.73 249.39 367.19 251.12C368.65 252.84 369.54 254.97 369.74 257.22C370.81 267.41 360.8 281.11 345.94 289.81L246.6 347.97C236.65 353.89 226.67 356.18 219.52 354.64ZM291.42 226.53C276.41 223.28 250.64 238.92 244.07 255.77L212.71 336.32C210.32 342.5 210.96 347.39 214.44 350.37C219.45 354.64 231.05 355.12 245.7 346.55L345.05 288.39C361.08 279 368.82 265.48 367.99 257.49C367.82 255.58 367.06 253.76 365.82 252.29C364.57 250.82 362.9 249.78 361.04 249.3L293.08 226.91C292.53 226.76 291.98 226.64 291.42 226.55L291.42 226.53Z" fill="#0C999C" fill-opacity="1.000000" fill-rule="nonzero"/>
		<path id="Vector" d="M217.87 364.43C215.75 364.01 213.75 363.14 211.99 361.89C207.4 358.51 206.05 352.68 208.19 345.45L234.05 258.18C240 238.09 269.27 218.44 287.15 222.79L364.57 240.91C367.06 241.3 369.37 242.46 371.17 244.22C372.97 245.99 374.18 248.27 374.62 250.76C376.54 261.35 366.85 276.34 351.83 286.51L248.55 355.68C237.48 363.04 226.03 366.19 217.87 364.43ZM286.47 224.41C269.64 220.77 241.33 239.87 235.74 258.72L209.88 345.99C207.98 352.41 209.1 357.56 213.06 360.47C220.1 365.65 234.3 363.07 247.6 354.16L350.89 284.99C367.39 273.94 374.48 259.54 372.93 251.02C372.54 248.88 371.49 246.91 369.93 245.4C368.36 243.88 366.36 242.9 364.21 242.58L286.79 224.45L286.47 224.41Z" fill="#0C999C" fill-opacity="1.000000" fill-rule="nonzero"/>
		<path id="Vector" d="M217.06 374.85C215.16 374.45 213.34 373.73 211.68 372.71C206.54 369.48 204.57 363.56 206.08 356.04L225.15 262.15C229.53 240.54 259.66 217.64 279.8 220.6L367.18 233.49L367 234.34L367.18 233.49C373.66 234.44 377.95 238.05 379.37 243.51C382.23 254.63 373.5 270.64 357.96 282.39L251.54 363.4C239.36 372.68 226.35 376.85 217.06 374.85ZM368.2 235.47L366.92 235.2L279.54 222.31C260.55 219.5 231.02 242.02 226.86 262.47L207.8 356.36C206.32 363.2 208.06 368.33 212.59 371.18C220.92 376.4 236.48 372.62 250.46 361.98L356.9 281.11C373.53 268.46 379.93 252.89 377.67 244.08C377.12 241.87 375.94 239.87 374.25 238.34C372.57 236.81 370.47 235.81 368.22 235.48L368.2 235.47Z" fill="#0C999C" fill-opacity="1.000000" fill-rule="nonzero"/>
		<path id="Vector" d="M217.06 385.8C215.48 385.46 213.96 384.92 212.53 384.17C206.78 381.15 204.06 375.16 205.02 367.32L215.84 267.03C218.33 243.96 249.04 217.46 271.54 218.98L369.35 225.55C376.8 226.04 381.99 229.64 384.01 235.67C387.84 247.14 379.78 264.41 364.4 277.66L255.78 371.4C242.65 382.62 227.6 388.08 217.06 385.8ZM369.19 226.38L369.13 227.26L271.41 220.71C250.12 219.28 219.94 245.29 217.59 267.09L206.77 367.38C205.99 374.58 208.3 379.8 213.45 382.5C223.2 387.62 240.21 382.45 254.63 369.93L363.25 276.19C378.09 263.37 385.93 246.89 382.34 236.07C380.54 230.69 376.02 227.59 369.22 227.15L369.19 226.38Z" fill="#0C999C" fill-opacity="1.000000" fill-rule="nonzero"/>
		<path id="Vector" d="M218.35 397.36C217.11 397.1 215.9 396.72 214.73 396.23C208.28 393.47 204.78 387.39 204.85 379.26L205.88 272.84C206.12 248.36 237.09 218.05 262.07 217.85L370.69 216.94C379.23 216.86 385.54 220.48 388.15 227.04C393.01 238.82 385.86 257.33 370.78 272.1L261.11 379.43C247.25 392.99 230.4 399.97 218.35 397.36ZM370.71 217.81L370.72 218.68L262.09 219.59C238.41 219.79 207.89 249.65 207.67 272.85L206.63 379.26C206.56 386.81 209.6 392.11 215.45 394.55C226.8 399.39 245.08 392.63 259.9 378.12L369.57 270.79C384.14 256.51 391.12 238.79 386.56 227.61C384.1 221.64 378.63 218.52 370.68 218.56L370.71 217.81Z" fill="#0C999C" fill-opacity="1.000000" fill-rule="nonzero"/>
		<path id="Vector" d="M220.85 409.39C220.07 409.22 219.31 409.01 218.55 408.76C211.29 406.37 206.84 400.34 206.06 391.81L195.67 279.76C194.59 268.37 200.08 254.52 210.71 241.89C222.48 227.88 238.07 218.49 251.67 217.43L371.42 207.79L371.5 208.68L371.42 207.79C381.18 207 388.51 210.54 392.06 217.75C398.09 229.97 392.2 249.26 377.39 265.76L268.04 387.48C253.45 403.62 234.42 412.32 220.85 409.39ZM379.03 210.04C376.54 209.53 373.98 209.39 371.45 209.63L251.68 219.17C238.65 220.22 223.45 229.36 211.98 243.02C201.83 255.1 196.35 268.78 197.38 279.6L207.8 391.69C208.52 399.59 212.45 404.92 219.11 407.14C232.22 411.47 251.75 402.92 266.64 386.33L375.99 264.61C390.11 248.9 396.04 229.97 390.39 218.64C389.3 216.42 387.71 214.48 385.74 212.99C383.76 211.49 381.47 210.48 379.03 210.04Z" fill="#0C999C" fill-opacity="1.000000" fill-rule="nonzero"/>
		<path id="Vector" d="M224.78 421.82L224.29 421.71C220.32 420.81 216.72 418.73 213.95 415.74C211.19 412.76 209.38 409 208.78 404.98L185.06 287.89C182.75 276.41 186.92 261.97 196.53 248.25C208.05 231.79 224.69 220.15 239.97 217.85L371.02 198.11C382.08 196.44 390.71 199.86 395.23 207.8C402.46 220.25 397.85 240.67 383.75 258.64L276.42 395.35C261.47 414.44 240.35 425.18 224.78 421.82ZM371.21 198.98L371.33 199.85L240.28 219.59C225.46 221.81 209.29 233.18 198.03 249.24C188.71 262.55 184.64 276.51 186.85 287.52L210.58 404.61C212.25 412.86 217.16 418.19 224.77 420.01C239.77 423.54 260.43 412.98 275.11 394.29L382.52 257.48C396.19 240.08 400.75 220.43 393.87 208.62C389.7 201.43 381.72 198.32 371.42 199.87L371.21 198.98Z" fill="#0C999C" fill-opacity="1.000000" fill-rule="nonzero"/>
		<path id="Vector" d="M230.38 434.49C226.32 433.65 222.58 431.71 219.55 428.89C216.53 426.06 214.34 422.46 213.22 418.47L174.38 297.25C170.69 285.75 173.44 270.66 181.99 255.9C192.77 236.99 210.23 222.96 227.3 219.22L369.74 187.95L369.93 188.82L369.74 187.95C382.19 185.22 392.26 188.35 398 196.95C406.65 209.75 403.6 230.75 390.22 250.46L286.58 403.01C272.11 424.32 249.74 437.44 232.18 434.9L230.38 434.49ZM383.76 189.28C379.27 188.42 374.63 188.53 370.18 189.61L227.66 220.92C211.06 224.57 194.15 238.23 183.5 256.76C175.24 271.11 172.53 285.63 176.04 296.71L214.83 418.02C215.91 422.01 218.17 425.59 221.3 428.29C224.43 430.99 228.3 432.69 232.4 433.17C249.31 435.61 270.99 422.8 285.09 402.04L388.73 249.5C401.52 230.68 404.64 209.98 396.51 197.97C393.55 193.52 388.94 190.42 383.7 189.36L383.76 189.28Z" fill="#0C999C" fill-opacity="1.000000" fill-rule="nonzero"/>
		<path id="Vector" d="M237.73 447.5C233.7 446.65 229.94 444.83 226.77 442.21C223.6 439.58 221.12 436.22 219.54 432.42L163.56 307.89C158.38 296.38 159.62 280.65 166.97 264.79C176.67 243.87 194.91 226.9 213.43 221.57L367.2 177.3C380.94 173.35 392.88 176.3 399.99 185.4C410.06 198.3 408.65 220.27 396.44 241.39L298.63 410.25C285.14 433.55 262.07 449.2 242.61 448.15C240.97 448.06 239.34 447.85 237.73 447.5ZM367.34 178.2L367.58 179.05L213.81 223.33C195.76 228.53 177.88 245.09 168.47 265.59C161.33 281 160.1 296.17 165.06 307.24L221.05 431.76C222.81 436.04 225.79 439.7 229.62 442.3C233.45 444.9 237.96 446.32 242.59 446.38C261.45 447.33 283.83 432.11 297.02 409.37L394.81 240.57C406.67 220.08 408.12 198.82 398.49 186.55C391.75 177.91 380.86 175.27 367.58 179.05L367.34 178.2Z" fill="#0C999C" fill-opacity="1.000000" fill-rule="nonzero"/>
		<path id="Vector" d="M247.05 460.39C243.08 459.55 239.34 457.89 236.07 455.5C232.8 453.11 230.07 450.06 228.06 446.54L152.76 319.99C145.89 308.47 145.42 292.06 151.6 275.13C159.92 252.03 178.27 232.48 198.38 225.28L363.19 166.46L363.48 167.28L363.19 166.46C378.44 161 392.22 163.49 400.99 173.25C412.59 186.18 413.09 209.04 402.25 231.53L312.7 416.97C300.57 442.12 277.16 460.34 255.84 461.27C252.89 461.35 249.93 461.06 247.05 460.39ZM363.82 168L198.96 226.93C179.35 233.85 161.41 253.09 153.26 275.71C147.29 292.27 147.67 308.07 154.28 319.16L229.58 445.71C232.21 450.24 236.07 453.93 240.71 456.35C245.35 458.77 250.58 459.83 255.8 459.4C276.51 458.5 299.27 440.68 311.15 416.1L400.7 230.66C411.23 208.86 410.84 186.78 399.72 174.39C391.45 165.17 378.35 162.86 363.82 168.06L363.82 168Z" fill="#0C999C" fill-opacity="1.000000" fill-rule="nonzero"/>
		<path id="Vector" d="M258.42 473.38C250.63 471.71 243.71 467.27 238.96 460.88L142.16 333.74C133.38 322.24 131.13 305.13 135.97 286.81C142.57 261.73 160.72 239.59 182.17 230.4L357.65 155.24L357.99 156.05L357.65 155.24C374.44 148.07 390.21 149.89 400.96 160.29C414.46 173.33 417.01 196.39 407.65 220.47L328.97 422.75C318.4 449.94 295.62 470.43 272.28 473.73C267.67 474.43 262.98 474.31 258.42 473.38ZM384.55 153.49C375.67 151.88 366.51 153.06 358.33 156.88L182.84 232.03C161.86 241 144.15 262.68 137.64 287.31C132.95 305.1 135.1 321.65 143.53 332.73L240.36 459.86C247.76 469.58 259.02 473.91 272.03 472.08C294.76 468.86 316.98 448.81 327.41 422.22L406.07 219.93C415.17 196.53 412.78 174.19 399.79 161.64C395.59 157.52 390.31 154.68 384.55 153.46L384.55 153.49Z" fill="#0C999C" fill-opacity="1.000000" fill-rule="nonzero"/>
		<path id="Vector" d="M272.01 485.86C264.55 484.28 257.74 480.47 252.48 474.95L131.85 348.92C120.94 337.48 116.55 319.56 119.97 299.82C124.61 273 142.25 248.39 164.77 237.03L350.22 143.93C368.51 134.76 386.47 135.74 399.51 146.66C414.88 159.52 419.79 183.22 412.31 208.51L347.51 427.65C339.09 456.24 316.81 479.44 292.17 485.43C285.57 487.1 278.68 487.25 272.01 485.86ZM350.64 144.6L351.03 145.38L165.64 238.6C143.55 249.7 126.33 273.84 121.78 300.12C118.46 319.3 122.62 336.66 133.2 347.72L253.83 473.74C263.45 483.81 276.93 487.34 291.81 483.73C315.88 477.77 337.59 455.13 345.87 427.16L410.67 208.03C417.96 183.41 413.26 160.42 398.44 148.01C385.96 137.57 368.7 136.66 351.09 145.5L350.64 144.6Z" fill="#0C999C" fill-opacity="1.000000" fill-rule="nonzero"/>
		<path id="Vector" d="M288.1 498.05C281.09 496.53 274.56 493.3 269.09 488.66L122.31 365.71C108.79 354.38 102.05 335.64 103.96 314.27C106.39 286 123.1 258.98 146.49 245.38L340.93 132.65C360.63 121.28 380.94 121.2 396.73 132.4C414.09 144.92 421.69 169.15 416.34 195.62L368.55 431.27C362.46 461.39 341.78 486.71 315.87 495.75C307.01 499.08 297.39 499.88 288.1 498.05ZM341.39 133.35L341.82 134.11L147.34 247.01C124.4 260.28 108.07 286.79 105.69 314.51C103.88 335.32 110.37 353.45 123.42 364.45L270.21 487.41C282.49 497.71 298.5 500.21 315.31 494.24C340.64 485.35 360.88 460.54 366.89 431.03L414.59 195.26C419.81 169.49 412.55 145.94 395.69 133.83C380.6 122.98 360.97 123.12 341.89 134.19L341.39 133.35Z" fill="#0C999C" fill-opacity="1.000000" fill-rule="nonzero"/>
		<path id="Vector" d="M306.46 509.29C300.14 507.93 294.14 505.38 288.77 501.77L113.54 384.14C97.07 373.09 87.66 353.43 87.73 330.23C87.75 315.53 91.35 301.06 98.22 288.07C105.09 275.07 115.03 263.95 127.16 255.66L329.48 121.41C350.17 107.67 373.54 106.15 391.96 117.36C412.04 129.57 422.23 153.57 419.24 181.54L392.17 433.43C388.85 464.31 369.76 492.2 343.51 504.44C332.03 510.09 319 511.79 306.46 509.29ZM330.01 122.14L330.5 122.87L128.07 257.13C116.17 265.25 106.44 276.16 99.7 288.89C92.96 301.62 89.43 315.81 89.4 330.21C89.33 352.81 98.46 371.94 114.42 382.66L289.65 500.29C304.9 510.52 324.23 511.46 342.62 502.8C368.32 490.79 387.03 463.47 390.28 433.2L417.45 181.36C420.37 154.06 410.55 130.79 391.01 118.85C373.28 108.04 350.53 109.51 330.41 122.86L330.01 122.14Z" fill="#0C999C" fill-opacity="1.000000" fill-rule="nonzero"/>
		<path id="Vector" d="M327.45 519.68C322.04 518.51 316.82 516.59 311.93 513.99L105.75 404.22C85.74 393.61 73.27 373.04 71.3 347.7C70.13 332.5 72.76 317.25 78.97 303.32C85.18 289.39 94.77 277.23 106.86 267.95L315.52 110.49C337.26 94.08 363.23 90.83 384.99 101.78C407.75 113.25 421.17 137.45 420.9 166.55L418.46 433.74C418.26 465.6 401.59 495.11 375.18 510.82C359.74 520.07 343.02 523.04 327.45 519.68ZM316.06 111.19L316.6 111.89L107.94 269.34C96.09 278.45 86.69 290.37 80.6 304.03C74.51 317.68 71.92 332.64 73.08 347.55C75.01 372.22 87.23 392.3 106.59 402.59L312.74 512.51C331.66 522.57 354.07 521.43 374.25 509.46C400.12 494.07 416.4 465.02 416.68 433.84L419.13 166.59C419.39 138.18 406.32 114.57 384.19 103.41C363.06 92.76 337.77 95.96 316.56 111.95L316.06 111.19Z" fill="#0C999C" fill-opacity="1.000000" fill-rule="nonzero"/>
		<path id="Vector" d="M350.97 528.78C346.8 527.88 342.73 526.6 338.79 524.97L99.33 425.95C75.44 416.07 59.29 394.6 54.84 367C52.42 351.46 53.99 335.56 59.41 320.79C64.84 306.02 73.93 292.88 85.83 282.6L298.92 100.24L299.49 100.9L298.92 100.24C321.43 80.98 350.03 75.58 375.4 85.9C401.2 96.33 418.27 120.59 421.09 150.75L447.4 432.12C448.88 447.86 446.29 463.73 439.88 478.19C433.48 492.65 423.46 505.22 410.8 514.71C392.5 528.29 371.25 533.16 350.97 528.78ZM363.55 83.99C341.84 79.3 318.85 85.49 300.13 101.53L87.01 283.95C75.36 294.02 66.45 306.9 61.14 321.36C55.82 335.83 54.28 351.4 56.64 366.63C60.93 393.59 76.74 414.61 100.06 424.23L339.52 523.25C362.67 532.71 388.28 529.16 409.88 513.21C422.29 503.91 432.11 491.58 438.39 477.39C444.67 463.21 447.21 447.65 445.75 432.21L419.38 150.92C416.64 121.33 399.95 97.65 374.78 87.53C371.15 86.03 367.39 84.84 363.55 83.99Z" fill="#0C999C" fill-opacity="1.000000" fill-rule="nonzero"/>
		<path id="Vector" d="M376.52 536.21C374.21 535.71 371.9 535.11 369.6 534.4L94.71 449.37C66.66 440.71 45.66 417.79 38.56 388.17C34.74 372.46 35.11 356.02 39.64 340.5C44.18 324.97 52.71 310.91 64.38 299.72L279.69 90.8L280.31 91.43L279.69 90.8C302.58 68.59 333.71 60.72 362.95 69.76C392.19 78.79 413.41 102.96 419.78 134.12L479.38 428.1C482.67 443.92 481.75 460.33 476.7 475.69C471.66 491.04 462.67 504.81 450.64 515.6C440.84 524.72 428.99 531.35 416.09 534.94C403.19 538.53 389.62 538.96 376.52 536.21ZM355.39 69.57C328.82 63.84 301.36 71.96 280.75 91.99L65.52 300.93C54.08 311.92 45.73 325.72 41.3 340.95C36.87 356.18 36.52 372.31 40.28 387.71C47.22 416.76 67.77 439.18 95.23 447.68L370.12 532.71C397.59 541.2 427.2 534.3 449.35 514.23C461.17 503.64 469.99 490.13 474.94 475.06C479.89 459.99 480.8 443.88 477.56 428.35L417.96 134.38C411.76 103.77 390.95 80.2 362.34 71.34C360.06 70.67 357.75 70.08 355.39 69.57Z" fill="#0C999C" fill-opacity="1.000000" fill-rule="nonzero"/>
		<path id="Vector" d="M404.61 541.84L92.07 474.36C75.94 470.88 61.02 463.22 48.8 452.14C36.58 441.06 27.5 426.95 22.46 411.24C17.42 395.53 16.6 378.76 20.09 362.63C23.58 346.5 31.26 331.57 42.34 319.34L257.21 82.27C268.24 69.98 282.33 60.84 298.05 55.8C313.77 50.75 330.55 49.98 346.66 53.57C362.82 56.95 377.79 64.59 390.02 75.68C402.25 86.78 411.31 100.94 416.26 116.7L513.94 421.25C518.98 436.96 519.8 453.72 516.31 469.86C512.82 485.99 505.14 500.92 494.06 513.15C482.98 525.38 468.87 534.48 453.16 539.53C437.45 544.58 420.69 545.4 404.57 541.92L404.61 541.84ZM257.86 82.88L258.51 83.46L43.63 320.58C32.76 332.58 25.23 347.23 21.81 363.06C18.39 378.89 19.19 395.34 24.13 410.75C29.08 426.17 37.99 440.01 49.98 450.88C61.97 461.76 76.61 469.28 92.43 472.7L404.97 540.18C420.79 543.59 437.23 542.77 452.64 537.81C468.05 532.85 481.89 523.92 492.76 511.92C503.63 499.92 511.16 485.27 514.58 469.45C518.01 453.62 517.21 437.17 512.27 421.76L414.6 117.16C409.65 101.75 400.74 87.91 388.75 77.03C376.76 66.16 362.12 58.64 346.3 55.22C330.48 51.81 314.03 52.62 298.62 57.58C283.21 62.53 269.37 71.46 258.49 83.46L257.86 82.88Z" fill="#0C999C" fill-opacity="1.000000" fill-rule="nonzero"/>
	</g>
</svg>
